<?xml version="1.0" encoding="utf-8" ?>
<svg xmlns="http://www.w3.org/2000/svg" xmlns:xlink="http://www.w3.org/1999/xlink" width="1024" height="1024">
	<path fill="#FEFEFE" d="M0 -0L1024 0L1024 1024L-0 1024L0 -0Z"/>
	<path fill="#000001" d="M591.339 72.3751L592.669 72.4394C594.258 72.561 595.628 72.8545 596.646 74.1759C597.753 75.6118 597.757 77.1846 597.393 78.9278C596.869 81.4308 594.461 84.5918 593.25 86.9703C591.99 89.4462 590.94 92.5716 589.247 94.7648C588.53 95.6947 587.45 96.3747 586.474 97.0074C585.093 96.8059 583.53 96.6723 582.416 95.75C581.263 94.7956 580.434 93.5223 580.605 92C580.859 89.7465 582.511 87.1761 583.558 85.2131C585.726 81.1509 587.869 75.3729 591.339 72.3751Z"/>
	<path fill="#000001" d="M580.343 336.323C582.036 336.404 583.525 336.168 584.949 337.2C587.04 338.715 588.426 342.046 589.662 344.278C591.494 347.585 595.288 352.613 595.732 356.364C596.043 358.988 594.961 360.146 593.393 361.989C591.46 361.837 589.602 361.547 588.058 360.288C586.365 358.908 585.39 356.227 584.407 354.319C582.517 350.652 578.388 345.321 578.097 341.338C577.939 339.186 579.012 337.877 580.343 336.323Z"/>
	<path fill="#000001" d="M657.985 210.58L661.25 210.364L673.712 210.361C675.769 210.373 678.129 210.153 680.131 210.606C680.987 210.8 681.559 211.216 682.15 211.852C683.291 213.081 683.772 214.309 683.515 216C683.249 217.753 682.025 218.418 680.758 219.445L664.437 219.691C662.889 219.702 659.421 220.032 658.045 219.355C657.559 219.116 656.651 218.469 656.25 218.045C655.458 217.208 655.056 216.18 655.075 215.036C655.107 213.123 656.675 211.761 657.985 210.58Z"/>
	<path fill="#000001" d="M344.271 211.18L363.693 211.132C365.291 211.261 366.774 211.698 367.717 213.105C368.797 214.715 368.491 216.058 367.98 217.75C366.697 219.297 365.849 219.738 363.948 220.35L348.489 220.38C346.654 220.376 343.909 220.666 342.25 219.919C341.678 219.662 340.754 218.551 340.25 218.09C339.701 216.103 339.764 215.622 340.25 213.604C341.713 212.044 342.218 211.851 344.271 211.18Z"/>
	<path fill="#000001" d="M430.895 69.959C432.729 70.1972 434.401 70.3996 435.616 71.9195C436.873 73.4925 437.771 75.7272 438.782 77.4811C440.908 81.1706 444.505 85.8892 445.52 89.9375C445.811 91.0975 445.632 92.3319 445.477 93.5C444.605 95.0113 443.338 95.4001 441.819 96.0681C440.203 95.8424 438.962 95.5129 437.785 94.3074C436.405 92.8943 435.393 90.5788 434.391 88.8537C432.323 85.2915 427.139 78.8138 427.448 74.9086C427.628 72.6298 429.255 71.3292 430.895 69.959Z"/>
	<path fill="#000001" d="M368.068 129.938C372.214 130.758 376.133 134.229 379.626 136.543C382.371 138.362 385.235 139.836 387.75 141.989C388.73 143.738 388.535 145.045 388.382 147C387.264 148.699 386.145 149.244 384.343 150.126C379.48 148.676 374.979 145.04 370.735 142.304C368.964 141.163 366.428 139.964 365.252 138.199C364.367 136.869 363.992 135.361 364.346 133.79C364.856 131.529 366.229 131.013 368.068 129.938Z"/>
	<path fill="#000001" d="M639.04 284.499C644.386 284.084 647.278 286.886 651.64 289.588L660.251 294.736C662.118 295.908 662.779 296.947 663.26 299.055C662.782 301.429 662.296 301.901 660.68 303.753C655.542 304.477 649.63 299.519 645.371 296.813C642.297 294.86 637.554 292.519 636.712 288.75C637.072 286.845 637.792 285.954 639.04 284.499Z"/>
	<path fill="#000001" d="M511.14 49.3369L511.917 49.4468C513.804 49.7409 515.026 50.3474 516.123 51.9552C517.305 53.6858 517.039 55.8847 517.057 57.8833C517.1 62.9674 517.769 69.5518 516.734 74.4667C516.242 76.8009 515.111 77.2421 513.237 78.4882C511.375 78.1832 509.441 77.8813 508.235 76.2726C507.075 74.7237 507.301 71.971 507.271 70.115C507.188 64.9713 506.494 58.5991 507.389 53.6026C507.784 51.3965 509.395 50.5231 511.14 49.3369Z"/>
	<path fill="#000001" d="M382.83 282.519L383.343 282.487C385.679 282.364 387.045 282.471 388.885 284.095C389.717 285.685 389.594 286.743 389.428 288.5C387.228 291.723 382.896 292.888 379.5 294.532L368.321 300.031C367.516 300.209 366.575 300.475 365.75 300.449C364.372 300.407 363.171 299.356 362.459 298.25C361.631 296.964 361.893 295.412 362.104 294C364.276 290.515 369.652 289.161 373.25 287.449L382.83 282.519Z"/>
	<path fill="#000001" d="M509.058 359.505L511.75 359.415C513.144 359.529 514.097 359.916 515.007 361C516.529 362.814 516.215 366.105 516.223 368.331L516.152 384.127C516.019 386.62 515.095 387.123 513.318 388.685L511.662 388.898C510.404 388.96 509.051 388.477 508.166 387.599C506.112 385.563 506.68 379.553 506.629 376.82C506.561 373.095 505.58 365.444 506.905 362.274C507.341 361.231 508.283 360.309 509.058 359.505Z"/>
	<path fill="#000001" d="M440.952 338.516L442.2 338.339C444.132 338.172 444.995 338.53 446.472 339.75C446.873 340.601 447.36 341.576 447.351 342.536C447.318 346.173 437.537 362.866 434.688 365.629L433.875 365.69C431.95 365.805 430.355 365.539 428.957 364.194C428.148 363.414 427.855 362.559 427.86 361.443C427.876 357.571 431.743 353.235 433.624 350.036C435.989 346.012 437.492 341.796 440.952 338.516Z"/>
	<path fill="#000001" d="M656.218 130.021C657.189 130.11 658.079 130.247 659.013 130.535C660.162 130.89 660.878 131.47 661.364 132.578C662.013 134.055 662.153 136.004 661.283 137.471C659.586 140.335 642.988 148.212 639.12 149.614C638.652 149.658 638.533 149.685 638 149.645C636.393 149.524 635.258 149.165 634.25 147.829C633.158 146.382 633.479 144.419 633.666 142.75C635.441 140.261 639.704 138.733 642.42 137.276C647.022 134.808 651.357 131.986 656.218 130.021Z"/>
	<path fill="#000001" d="M322.751 371.574L356.863 371.516C361.306 371.516 367.211 370.835 371.486 371.809C373.045 372.165 373.985 372.892 374.693 374.343C375.353 375.695 375.015 377.155 374.635 378.514C373.51 379.928 372.961 380.272 371.249 380.848C365.204 381.104 324.375 381.758 321.75 380.37C321.155 380.055 320.43 379.213 319.902 378.75C319.394 377.523 319.032 376.601 319.312 375.26C319.745 373.18 321.095 372.572 322.751 371.574Z"/>
	<path fill="#000001" d="M705.25 339.067L707.678 338.925L749.03 338.943C755.767 338.936 763.542 338.158 770.178 339.038C771.271 339.182 772.209 339.696 772.931 340.526C773.819 341.546 773.926 342.555 773.815 343.85C773.626 346.05 772.433 346.962 770.874 348.3C767.22 348.677 763.314 348.413 759.636 348.4L738.587 348.257C728.382 348.195 717.491 349.026 707.364 348.089C706.181 347.98 705.418 347.7 704.378 347.153C703.132 345.626 702.973 345.196 702.613 343.25C703.135 341.324 703.797 340.42 705.25 339.067Z"/>
	<path fill="#000001" d="M742.673 361.549L783.842 361.526C795.128 361.498 807.024 360.701 818.25 361.527C819.005 361.583 819.485 361.777 820.103 362.25C821.492 363.313 822.238 364.742 822.023 366.5C821.801 368.321 820.662 369.256 819.383 370.437C813.543 371.027 807.499 370.814 801.629 370.823L775.205 370.843L755.98 370.831C752.399 370.825 748.618 371.053 745.062 370.629C743.94 370.496 743.138 370.28 742.25 369.546C741.215 368.691 740.665 367.649 740.543 366.332C740.363 364.377 741.474 362.952 742.673 361.549Z"/>
	<path fill="#000001" d="M273.247 395.537L319.399 395.382L340.581 395.372C344.663 395.373 350.308 394.709 354.013 396.395C355.07 397.569 355.879 398.279 355.892 400C355.906 401.934 354.811 403.152 353.481 404.386C352.578 404.606 351.681 404.776 350.75 404.832C346.632 405.082 342.381 404.813 338.25 404.809L312.219 404.833L288.754 404.837C284.574 404.835 280.208 405.083 276.045 404.718C274.595 404.591 273.584 404.523 272.507 403.473C271.377 402.371 270.963 401.054 271.004 399.5C271.047 397.835 272.172 396.675 273.247 395.537Z"/>
	<path fill="#000001" d="M782.768 153.685C791.528 152.595 801.739 154.497 809.765 158.137C823.275 164.265 832.199 174.843 837.306 188.619C842.709 187.733 848.482 187.687 853.76 189.335C865.875 193.117 872.286 200.211 877.959 211.194C880.394 210.752 882.923 210.309 885.403 210.286C895.796 210.19 903.947 213.86 911.298 221.069C918.291 227.928 922.113 237.745 922.067 247.5C922.021 257.138 918.388 266.611 911.489 273.407C907.016 277.812 901.581 281.402 895.505 283.123C886.952 285.546 876.132 284.378 867.311 284.377L829.125 284.321L738.603 284.381C733.52 284.396 728.004 284.811 722.968 284.137C714.092 282.948 705.104 278.213 698.828 271.882C691.158 264.144 686.935 253.199 687.147 242.317C687.358 231.557 691.739 219.736 699.682 212.293C709.472 203.12 720.859 199.856 734.076 200.206C735.613 190.467 738.805 182.099 744.875 174.244C754.535 161.744 767.36 155.634 782.768 153.685Z"/>
	<path fill="#36BFD1" d="M782.25 163.16L782.787 163.096C800.711 161.19 817.795 170.277 826.071 186.284C827.705 189.445 828.278 196.449 831.233 198.274C833.389 199.605 835.217 199.02 837.5 198.437C841.195 197.495 844.884 197.037 848.669 197.853C856.61 199.565 864.542 205.001 867.791 212.656C868.929 215.338 869.34 218.064 870.945 220.559C875.18 223.337 880.512 219.601 885.164 219.521C891.79 219.408 898.384 222.242 903.131 226.781C908.66 232.069 912.434 238.745 912.555 246.531C912.682 254.699 909.468 261.709 903.75 267.426C900.426 270.749 896.553 273.049 891.98 274.188C884.325 276.094 875.121 275.214 867.223 275.208L829.75 275.115L756.693 275.053L736.677 275.067C732.599 275.072 728.29 275.351 724.254 274.699C718.042 273.696 712.852 271.857 707.94 267.841C701.763 262.792 697.196 254.195 696.483 246.248C695.658 237.057 698.394 228.469 704.404 221.439C711.209 213.479 721.263 208.617 731.848 209.891C733.939 210.143 737.304 211.347 739.299 210.958C740.662 210.692 742.013 209.724 742.585 208.428C743.497 206.363 743.416 203.245 743.708 200.984C744.668 193.549 747.459 186.743 751.941 180.727C759.587 170.462 769.71 165.033 782.25 163.16Z"/>
	<path fill="#000001" d="M196.854 209.691C204.405 209.096 212.024 209.526 219.28 211.815C235.026 216.782 245.911 227.279 253.475 241.653L256 241.361C263.566 240.443 269.942 241.124 276.845 244.578C284.861 248.587 290.189 255.833 292.979 264.208L299.737 263.538C308.387 263.296 317.293 267.33 323.506 273.213C330.681 280.007 335.414 289.463 335.472 299.481C335.534 310.115 331.068 320.23 323.559 327.68C310.017 341.113 292.176 338.93 274.683 338.948L240.75 338.947L171.655 338.937L149.794 338.911C144.233 338.901 138.299 339.269 132.896 337.776L132 337.523C123.224 335.114 115.805 330.404 109.824 323.551C102.346 314.985 99.582 303.383 100.49 292.25C101.414 280.915 107.221 270.795 115.82 263.523C124.625 256.077 135.91 252.956 147.288 253.814C148.216 251.824 148.549 249.519 149.272 247.434C151.229 241.788 154.054 236.285 157.688 231.538C167.421 218.822 181.167 211.705 196.854 209.691Z"/>
	<path fill="#36BFD1" d="M196.782 219.159C202.826 218.444 209.222 218.781 215.115 220.375C226.967 223.58 236.51 231.028 242.67 241.614C244.631 244.985 246.038 248.624 247.993 252C251.983 254.203 256.946 249.938 261.559 250.136C271.862 250.579 280.868 256.816 283.25 267.199C283.853 269.828 283.238 272.025 285.267 274.098C285.71 274.55 286.846 275.346 287.5 275.37C288.518 275.406 290.473 274.595 291.471 274.289C293.902 273.546 296.24 273.025 298.802 272.994C306.013 272.908 312.617 275.529 317.75 280.588C322.851 285.615 326.03 292.59 326.069 299.79C326.114 307.834 322.911 314.899 317.264 320.577C313.852 324.007 309.389 327.105 304.686 328.446C297.479 330.499 288.03 329.433 280.558 329.426L244.811 329.343L140.73 329.375C131.741 328.997 123.32 324.486 117.463 317.75C111.759 311.191 109.275 302.784 109.866 294.177C110.483 285.211 114.952 276.741 121.705 270.863C127.611 265.723 136.148 262.386 144.023 262.499C147.257 262.545 150.511 263.298 153.75 263.546C155.028 262.872 155.701 262.519 156.192 261.088C156.814 259.277 156.824 256.75 157.15 254.821C158.122 249.057 160.634 243.494 164.036 238.75C172.243 227.306 183.111 221.439 196.782 219.159Z"/>
	<path fill="#000001" d="M504.899 102.718L505.312 102.67C533.997 100.113 564.348 110.854 586.46 128.841C609.422 147.521 625.526 177.645 628.278 207.137C631.027 236.594 621.837 267.249 602.972 290.141C582.067 315.506 553.558 330.117 520.879 333.151L519.691 333.293C490.93 335.721 459.859 324.395 437.917 306C414.911 286.714 399.786 258.666 397.181 228.709C394.486 197.728 404.062 166.573 424.275 142.859C438.704 125.932 458.786 112.734 480.25 106.702C488.339 104.429 496.55 103.411 504.899 102.718Z"/>
	<path fill="#E9B006" d="M605.851 269.374C601.666 277.363 596.047 284.957 589.729 291.396C568.569 312.964 541.671 324.246 511.481 324.456C484.948 324.641 457.684 312.775 438.871 294.25C417.924 273.623 405.928 248.372 405.774 218.736C405.633 191.586 415.84 163.461 435.112 144.039C456.433 122.551 483.634 111.603 513.732 111.492C510.36 114.592 506.113 115.165 502.003 117C493.861 120.633 485.715 125.017 478.622 130.441C476.898 131.759 474.494 133.341 473.233 135.076C470.896 135.377 468.86 135.266 467.328 137.389C466.275 138.849 465.843 140.419 465.45 142.147C461.981 145.507 459.421 149.667 456.986 153.811C451.103 163.826 447.15 174.133 443.55 185.119C445.821 187.901 446.408 189.376 446.005 193C445.794 194.895 445.312 196.906 443.75 198.151L441.07 199.772C440.953 205.712 440.713 211.821 441.276 217.736C443.188 237.85 450.951 257.712 465.101 272.396C468.197 275.608 471.395 278.853 475 281.499L481.578 285.955C483.664 285.382 485.895 284.945 487.849 286.184C489.617 287.305 490.695 289.271 491.494 291.138L497.828 293.413C506.465 296.254 515.403 298.283 524.5 298.852C546.892 300.254 568.838 292.792 588.028 281.707C590.775 280.12 593.557 278.435 596.048 276.472C599.055 274.101 601.922 271.279 605.381 269.592L605.851 269.374Z"/>
	<path fill="#000001" d="M425.044 236.384C426.763 236.565 428.379 236.981 429.538 238.352C431.146 240.255 431.733 242.785 431.378 245.221C430.932 248.271 429.65 249.312 427.222 251.046C425.078 250.656 423.529 250.203 422.258 248.293C421.059 246.491 420.293 243.939 420.769 241.789C421.351 239.159 422.842 237.763 425.044 236.384Z"/>
	<path fill="#000001" d="M441.07 199.772C439.243 199.227 437.751 198.548 436.628 196.924C435.442 195.208 435.418 192.434 435.766 190.466C436.112 188.502 436.96 186.496 438.75 185.439C440.368 184.485 441.798 184.8 443.55 185.119C445.821 187.901 446.408 189.376 446.005 193C445.794 194.895 445.312 196.906 443.75 198.151L441.07 199.772Z"/>
	<path fill="#000001" d="M481.578 285.955C483.664 285.382 485.895 284.945 487.849 286.184C489.617 287.305 490.695 289.271 491.494 291.138C491.161 292.914 490.753 294.622 489.566 296.047C488.458 297.377 486.641 298.16 484.927 298.216C483.034 298.277 481.499 297.753 480.122 296.447C478.795 295.188 478.136 293.691 478.16 291.84C478.191 289.326 479.953 287.643 481.578 285.955Z"/>
	<path fill="#EED814" d="M513.732 111.492C542.105 111.948 569.513 123.277 589.355 143.75C609.076 164.098 620.1 192.293 619.521 220.565C619.268 232.925 616.428 245.33 611.895 256.795C610.212 261.052 608.41 265.564 605.851 269.374L605.381 269.592C601.922 271.279 599.055 274.101 596.048 276.472C593.557 278.435 590.775 280.12 588.028 281.707C568.838 292.792 546.892 300.254 524.5 298.852C515.403 298.283 506.465 296.254 497.828 293.413L491.494 291.138C490.695 289.271 489.617 287.305 487.849 286.184C485.895 284.945 483.664 285.382 481.578 285.955L475 281.499C471.395 278.853 468.197 275.608 465.101 272.396C450.951 257.712 443.188 237.85 441.276 217.736C440.713 211.821 440.953 205.712 441.07 199.772L443.75 198.151C445.312 196.906 445.794 194.895 446.005 193C446.408 189.376 445.821 187.901 443.55 185.119C447.15 174.133 451.103 163.826 456.986 153.811C459.421 149.667 461.981 145.507 465.45 142.147C465.843 140.419 466.275 138.849 467.328 137.389C468.86 135.266 470.896 135.377 473.233 135.076C474.494 133.341 476.898 131.759 478.622 130.441C485.715 125.017 493.861 120.633 502.003 117C506.113 115.165 510.36 114.592 513.732 111.492Z"/>
	<path fill="#000001" d="M584.568 236.996L586.75 237.44C588.617 238.021 589.859 239.612 590.615 241.349C591.357 243.051 591.421 244.745 590.648 246.45C589.608 248.745 588.049 249.371 585.803 250.286L583.25 249.805C581.631 249.281 580.048 247.751 579.355 246.189C578.743 244.809 578.632 243.087 579.167 241.67C580.165 239.025 582.072 237.993 584.568 236.996Z"/>
	<path fill="#000001" d="M580.934 186.516L583.939 186.448C585.742 186.553 587.031 187.211 588.201 188.593C589.426 190.04 590.057 192.035 589.796 193.922C589.435 196.541 588.176 197.389 586.165 198.864C585.237 199.039 584.281 199.129 583.335 199.099C581.51 199.04 580.317 198.294 579.097 196.954C577.794 195.522 577.439 193.909 577.559 192C577.722 189.394 579.033 188.129 580.934 186.516Z"/>
	<path fill="#000001" d="M476.515 226.034L479.243 226.586C480.91 227.125 482.542 228.859 483.145 230.498C483.712 232.038 483.519 233.558 482.873 235.021C481.824 237.398 480.193 238.151 477.919 239.107C476.91 239.064 475.793 238.966 474.83 238.631C473.365 238.12 472.007 236.57 471.465 235.134C470.817 233.414 470.822 231.664 471.584 229.979C472.636 227.649 474.223 226.909 476.515 226.034Z"/>
	<path fill="#000001" d="M506.545 175.969C507.43 176.056 508.296 176.139 509.151 176.401C510.756 176.891 511.718 177.766 512.493 179.244C513.44 181.051 513.624 183.058 512.99 184.997C512.194 187.432 510.438 188.354 508.289 189.497L504.75 188.52C503.386 187.877 502.219 186.642 501.662 185.233C500.973 183.49 501.151 181.503 501.903 179.805C502.834 177.702 504.521 176.812 506.545 175.969Z"/>
	<path fill="#000001" d="M543.493 146.003C544.456 146.005 545.402 145.986 546.339 146.241C548.126 146.725 549.554 147.924 550.349 149.6C551.207 151.407 551.205 153.672 550.509 155.528C549.656 157.802 547.995 158.524 545.892 159.468C543.338 159.119 541.284 158.527 539.75 156.283C538.867 154.992 538.383 152.956 538.765 151.428C539.436 148.751 541.256 147.382 543.493 146.003Z"/>
	<path fill="#000001" d="M540.566 264.529C541.534 264.474 542.573 264.392 543.529 264.588C545.334 264.958 546.897 266.384 547.813 267.93C548.666 269.369 548.905 271.454 548.353 273.062C547.573 275.337 545.879 276.315 543.927 277.533L541.25 277.317C539.614 276.954 537.697 275.777 536.887 274.274C536.037 272.698 535.759 270.691 536.281 268.975C537.002 266.609 538.517 265.716 540.566 264.529Z"/>
	<path fill="#000001" d="M465.45 142.147C465.843 140.419 466.275 138.849 467.328 137.389C468.86 135.266 470.896 135.377 473.233 135.076C475.329 136.135 476.886 137.086 477.75 139.372C478.455 141.24 478.217 143.692 477.25 145.432C476.453 146.865 475.12 147.834 473.5 148.103C471.517 148.432 469.321 147.827 467.802 146.522C466.437 145.35 465.932 143.819 465.45 142.147Z"/>
	<path fill="#000001" d="M543.048 207.957C543.938 207.962 544.755 207.986 545.623 208.208C547.443 208.674 548.71 209.588 549.636 211.237C550.489 212.756 550.706 214.477 550.235 216.155C549.445 218.967 547.948 219.881 545.465 221.186L542.75 220.997C541.192 220.689 539.465 219.351 538.681 217.994C537.774 216.425 537.59 214.17 538.178 212.454C538.998 210.056 540.9 209.007 543.048 207.957Z"/>
	<path fill="#000001" d="M184.141 968.463C182.982 969.377 181.73 970.495 180.234 970.572C177.668 970.705 174.339 968.709 172.06 967.555C162.491 962.71 153.426 957.03 145.735 949.464C117.88 922.062 107.657 880.245 124.897 844.275C126.823 840.256 128.958 836.347 131.398 832.617C134.553 827.794 139.509 822.122 140.952 816.585C142.583 810.329 141.742 801.708 141.754 795.232L141.563 753.323L138.569 750.977C133.163 753.944 129.831 756.829 123.277 757.685C117.583 758.428 111.19 755.369 106.875 751.877L106.33 751.43L103.805 753.805C100.148 756.952 94.7127 759.925 89.7585 759.474C88.2599 759.337 86.667 757.38 85.7747 756.283L85.4517 755.878L41.25 755.954C40.4301 755.499 39.7353 755.155 39.2295 754.319C38.2545 752.708 38.4518 751.107 38.75 749.364C40.2476 746.681 45.5857 744.835 48.2782 742.965C58.9896 735.526 72.7918 727.274 79.6313 715.96C82.54 711.148 83.9458 706.022 84.9164 700.545C73.507 700.282 62.3047 702.841 50.9842 703.171C49.6833 702.621 48.3829 702.007 47.8346 700.583C47.2247 699 47.4245 697.037 48.5422 695.713C51.0217 692.775 55.687 690.376 58.7338 687.927L73.2415 675.704C83.4974 666.942 93.0059 658.22 98.1003 645.454C93.38 645.391 63.1236 646.21 60.8223 644.979C59.6672 644.362 58.849 643.507 58.4789 642.228C57.7808 639.813 59.1764 637.979 61.098 636.703C71.094 630.064 80.0638 622.049 88.382 613.389C94.8131 606.694 100.838 599.854 105.028 591.505L88.3428 590.886C86.1494 590.763 82.97 590.911 80.9766 589.918C79.6471 589.255 78.4746 588.061 78.0285 586.633C77.2956 584.287 78.5694 582.366 80.3581 580.963C83.4326 578.551 86.6799 576.399 89.5616 573.738C96.1175 567.686 101.643 560.8 107.144 553.817C110.943 548.997 114.882 544.086 117.814 538.683C112.957 537.846 104.5 538.157 100.371 535.668C98.8767 534.767 97.9655 533.753 97.6355 532C97.3785 530.634 97.6434 528.836 98.514 527.75C101.547 523.965 105.875 521.141 109.149 517.503C117.909 507.767 125.738 496.595 132.753 485.549C129.122 485.504 124.612 485.624 121.152 484.359C119.812 483.869 118.606 482.315 118.066 481.042C117.558 479.844 117.381 478.174 117.965 476.988C119.069 474.748 122.242 472.458 123.944 470.527C129.537 464.185 133.586 457.481 136.731 449.615C143.689 432.214 147.927 413.252 152.945 395.187C154.608 389.204 155.615 381.992 158.303 376.456C159.02 374.98 160.547 373.208 162.186 372.73C163.628 372.31 165.962 372.358 167.282 373.153C168.287 373.757 169.148 374.744 169.781 375.718C172.293 379.585 173.292 385.099 174.425 389.497L179.735 410.347C182.71 421.8 185.616 433.324 189.527 444.5C191.79 450.966 194.486 457.377 198.509 462.967C200.15 465.247 201.975 467.533 203.95 469.53C206.294 471.9 211.118 475.113 211.531 478.451C211.744 480.174 211.018 481.743 209.867 482.984C207.051 486.021 201.312 485.142 197.489 485.144C199.12 490.094 202.501 494.331 205.536 498.486C212.295 507.737 219.412 515.999 227.422 524.174C229.144 523.098 234.134 520.919 235.268 519.361C236.77 517.299 237.808 512.861 238.664 510.388L248.701 480.822C249.833 477.476 250.378 473.786 251.776 470.558C252.314 469.318 252.997 468.47 254.223 467.821C255.321 467.24 257.343 467.366 258.448 467.86C259.316 468.248 260.134 469.087 260.55 469.938C262.273 473.471 262.959 478.078 264.191 481.86L272.441 505.637C281.085 502.147 289.75 496.027 297.82 491.246L358.033 454.837C369.605 447.803 381.693 439.321 394.176 434.151C399.379 431.996 405.617 430.272 411.296 430.63C415.164 430.873 418.906 431.868 422.241 433.884C426.021 436.17 429.115 439.842 432.137 443.013L451.242 464.445L483.816 444.382C492.144 440.246 502.213 437.651 511.544 438.8C515.223 439.253 518.737 440.496 522.233 441.677C526.088 428.128 533.383 416.089 545.814 408.75C547.796 407.58 549.826 406.487 551.953 405.605C552.717 405.288 554.612 404.81 555.187 404.343C555.738 403.896 557.043 396.837 557.508 395.513C559.429 390.046 562.576 384.745 566.242 380.27C573.675 371.199 585.273 365.224 596.894 364.114C610.931 362.773 624.972 366.594 635.919 375.609C646.856 384.617 652.693 396.59 654.079 410.562C663.606 410.344 671.996 411.861 679.791 417.703C689.315 424.841 694.177 434.229 695.852 445.933L698.644 443.124C704.599 437.342 711.399 432.188 718.25 427.522C724.81 423.054 732.134 418.06 740.41 418.234C746.006 418.353 750.725 420.035 755.354 423.153C768.379 431.926 779.148 445.522 789.945 456.843L834.696 503.476C838.727 494.608 840.955 485.053 843.212 475.617L848.854 452.138C850.298 445.64 851.502 437.475 854.3 431.464C855.041 429.871 856.127 428.446 857.869 427.897C859.43 427.405 861.535 427.181 863 427.994C864.81 428.999 865.762 430.774 866.398 432.655C869.178 440.881 870.807 449.94 872.793 458.407C876.93 476.038 881.781 494.252 889.754 510.594C892.189 515.585 895.048 520.874 898.592 525.174C900.964 528.053 903.939 530.461 906.525 533.153C907.409 534.073 908.185 535.006 908.422 536.31C908.728 538 908.007 540.109 906.853 541.358C904.129 544.307 897.384 543.488 893.601 543.512C900.117 553.219 905.557 563.434 913.443 572.184L920.922 579.901C923.494 582.328 929.606 586.497 930.339 589.75C930.181 591.579 929.993 592.27 928.908 593.75C923.871 596.531 913.881 596.033 908.099 596.39C915.189 608.878 923.67 619.565 934.555 628.97C938.684 632.538 943.188 635.638 947.529 638.936C948.938 640.007 950 641.172 950.169 643C950.29 644.319 950.132 645.584 949.25 646.62C946.394 649.977 923.23 651.215 917.971 651.52C921.004 660.057 926.408 665.3 932.931 671.309C939.685 677.53 946.872 683.053 954.58 688.055C957.76 690.118 963.042 692.28 965.423 695.068C966.732 696.6 966.431 697.608 966.345 699.485C965.31 700.892 964.768 701.49 963 701.864C959.376 702.629 954.987 702.296 951.276 702.38C943.636 702.551 936.071 702.762 928.527 704.089C932.563 721.215 949.231 734.699 963.673 743.294C967.547 745.6 974.84 748.404 977 752.25C977.13 754.115 977.065 754.969 976.107 756.593C975.061 757.466 974.099 758.002 972.733 758.232C968.9 758.879 964.397 758.505 960.498 758.523L936.14 759.009L936.251 760.051C938.358 778.082 956.811 792.736 971.336 801.457C975.456 803.931 981.581 806.249 985.039 809.45C986.587 810.882 986.389 811.826 986.384 813.75C984.5 816.56 982.401 816.516 979.285 816.953C970.622 818.166 962.534 817.094 954 815.368C952.697 815.105 948.523 813.699 947.429 813.942C946.023 814.255 944.143 815.618 942.702 816.175C937.302 818.261 930.652 818.175 925.043 817.071C921.899 816.453 918.835 815.545 915.842 814.407C915.307 814.204 911.769 812.597 911.452 812.678C910.898 812.819 909.264 814.353 908.692 814.759C906.676 816.189 904.478 817.226 902.057 817.75C894.279 819.432 887.965 816.939 881.478 812.822L882.825 840.959L882.967 849.127C882.972 849.469 882.861 851.399 883.001 851.632C884.773 854.576 889.003 857.725 891.395 860.407C900.485 870.602 907.319 884.288 909.371 897.837C912.738 920.075 906.743 940.986 893.295 958.899C890.681 962.382 885.646 969.793 881.25 970.437C879.276 970.02 878.562 969.539 877.171 968.07L876.767 967.631L803.196 967.463L331.419 968.44L184.141 968.463Z"/>
	<path fill="#CFF4CA" d="M296.331 605.927C298.278 606.744 301.598 607.243 303.149 608.5L301.484 610.746L300.25 611.939C298.525 610.566 297.41 607.847 296.331 605.927Z"/>
	<path fill="#85C979" d="M771.783 770.283L772.295 770.167L772.607 770.524L761.281 780.934L760.903 781.161C759.776 779.556 760.431 772.964 760.428 770.693L771.783 770.283Z"/>
	<path fill="#FEFEFE" d="M231.451 531.499L231.623 531.92C231.833 533.071 230.98 535 230.586 536.122L225.027 549.912L221.613 545.803L215.719 537.697C217.967 537.597 223.579 537.308 225.525 536.401C227.446 535.505 229.787 532.901 231.451 531.499Z"/>
	<path fill="#FAEFBF" d="M716.872 556.076C720.661 560.464 724.153 560.657 729.578 561.22C727.174 566.102 723.71 570.513 720.441 574.839L719.5 574.888C714.781 571.25 710.174 566.446 707.523 561.092C708.123 560.42 709.273 560.269 710.138 559.987C712.675 559.161 714.877 558.687 716.583 556.475L716.872 556.076Z"/>
	<path fill="#FEFEFE" d="M796.678 598.48C798.77 598.511 800.905 599.123 803.009 599.287C805.473 599.479 808.266 599.087 810.653 599.649L799.911 616.289C798.106 616.03 796.967 613.966 795.777 612.611L785.94 601.498L786.065 601.196C790.039 600.949 793.062 600.112 796.678 598.48Z"/>
	<path fill="#A2552E" d="M741.073 770.929L751.958 770.931L752.115 789.704L740.774 801.001L735.209 807.392C735.125 805.974 736.267 803.531 736.676 802.083C737.511 799.132 738.068 796.032 738.599 793.014C739.885 785.707 740.588 778.326 741.073 770.929Z"/>
	<path fill="#146A22" d="M336.635 518.473C342.053 528.065 348.313 535.946 356.013 543.79C354.729 544.616 352.495 544.677 350.983 544.926C346.193 545.716 341.469 546.396 336.624 546.758C334.739 546.892 332.172 547.251 330.511 546.178C327.137 543.997 322.111 543.708 318.179 542.88C326.11 535.406 331.345 527.985 336.635 518.473Z"/>
	<path fill="#146A22" d="M328.125 554.289C334.474 555.323 339.394 555.407 345.73 554.394C349.382 561.225 354.434 565.846 360.108 570.958L360.115 571.561C359.689 571.791 359.538 571.908 359 571.996C357.304 572.275 354.919 572.148 353.487 571.206L353.016 570.89C352.486 570.574 351.027 569.613 350.464 569.529C348.947 569.302 345.074 570.667 343.422 571.077C342.216 570.491 340.127 569.225 338.75 569.267C337.568 569.303 335.764 570.322 334.475 570.578C331.834 571.102 330.337 570.326 328.172 568.908L327.562 568.499L324.117 570.149C320.661 571.848 315.14 571.795 311.291 572.246C317.502 566.791 322.85 560.63 328.125 554.289Z"/>
	<path fill="#A2552E" d="M240.584 750.71C248.285 753.471 254.368 754.409 262.478 754.505C262.527 759.9 263.372 765.388 263.784 770.778C263.924 772.611 264.535 774.427 263.4 775.926L239.369 775.874C238.809 774.526 240.499 754.136 240.584 750.71Z"/>
	<path fill="#146A22" d="M324.721 576.86C329.811 577.758 333.108 579.058 338.334 577.602C339.681 577.226 341.432 578.252 342.869 578.472C345.279 578.84 347.394 578.201 349.639 577.386L350.296 577.142C352.785 582.28 355.003 587.92 358.445 592.5C360.514 595.253 363.156 597.469 365.742 599.717L355.045 600.474C351.995 600.498 349.251 599.819 346.564 598.413C337.111 591.289 338.534 598.8 330.572 599.471C327.445 599.734 326.224 599.429 323.79 597.472C320.709 594.993 316.396 597.992 313.25 598.481C311.325 598.78 309.179 598.626 307.232 598.56C315.225 592.411 318.684 584.57 324.721 576.86Z"/>
	<path fill="#EED814" d="M250.63 557.45C255.563 559.614 258.923 560.197 264.25 559.115C267.628 558.428 269.757 558.725 273.096 559.426L278.333 570.908L283.428 580.172C284.176 581.444 285.407 582.895 285.392 584.35C281.653 584.851 278.419 583.52 275.156 581.812C273.555 580.974 272.199 579.835 270.378 579.864C267.061 582.626 263.492 586.193 259.25 587.382C257.565 587.142 255.997 586.76 254.686 585.597C251.211 582.518 248.338 577.778 245.507 574.082L234.452 560.625C240.262 559.834 244.969 559.292 250.63 557.45Z"/>
	<path fill="#EED814" d="M279.915 626.813C281.358 628.126 283.303 628.782 284.677 630.016C285.21 630.494 285.81 632.082 286.218 632.785L290.083 639.334C294.332 646.535 298.569 653.161 303.619 659.853C300.625 658.537 297.48 657.31 294.703 655.569C292.067 653.917 289.488 651.576 286.675 650.313C286.057 650.036 284.094 649.163 283.551 649.243C283.078 649.312 279.055 653.875 278.251 654.597C276.923 655.789 275.449 656.787 273.75 657.369C269.486 658.831 265.754 656.704 261.95 654.977C260.805 654.479 257.448 652.932 256.309 653.005C255.428 653.06 253.566 654.205 252.717 654.624C249.89 656.019 246.459 658.098 243.286 658.353C238.281 653.844 234.556 648.808 230.521 643.454C241.081 642.832 252.211 644.42 262.661 642.8C264.476 642.518 266.094 641.82 267.14 640.241C267.872 639.135 268.159 637.74 267.833 636.451L267.25 634.026C268.728 633.126 270.576 632.883 272.188 632.25C275.288 631.033 277.494 629.022 279.915 626.813Z"/>
	<path fill="#EED814" d="M284.755 660.886C287.09 661.302 290.148 663.885 292.144 665.172C292.931 665.68 294.534 666.452 295.128 667.105C296.424 668.528 297.464 671.503 298.604 673.234C303.715 680.994 309.959 688.295 317.668 693.552C313.295 693.617 308.864 693.28 304.5 692.981C302.129 692.818 299.267 692.793 297.237 691.426C294.028 689.264 288.131 683.112 284.25 683.542L282.64 685.765C281.123 688.291 279.445 690.407 277.507 692.619C276.93 691.47 276.329 690.168 275.421 689.243C272.421 686.19 268.145 683.59 264.741 680.923C259.042 676.458 253.775 671.541 248.82 666.269C251.323 665.556 254.993 663.173 257.3 662.96C258.563 662.843 260.741 664.571 261.943 665.149C263.34 665.82 264.757 666.232 266.281 666.492C273.992 667.806 278.687 665.222 284.755 660.886Z"/>
	<path fill="#EED814" d="M286.619 695.804C290.104 700.41 292.983 705.474 296.537 710.039C301.163 715.981 306.863 720.668 312.564 725.524C305.445 725.569 294.963 727.01 288.704 723.612L286.904 722.654C286.358 722.389 284.017 721.349 283.621 721.438C283.212 721.53 281.686 723.149 281.265 723.514C279.271 725.239 277.703 726.529 275.192 727.43L273.092 727.757C267.825 728.306 262.008 723.667 258.194 720.377C253.657 716.463 246.507 709.04 246.013 702.75C247.424 701.848 248.522 702.08 250.188 702.057L264.565 702.574C269.592 702.666 276.647 702.945 281.197 700.473C283.183 699.394 284.99 697.368 286.619 695.804Z"/>
	<path fill="#EED814" d="M753.073 494.578C759.578 514.728 765.702 533.168 776.379 551.585C773.656 551.581 770.082 552.006 767.5 551.126C766.113 550.653 762.394 548.302 761.087 548.359C761.053 548.361 759.893 549.533 759.811 549.613C757.698 551.678 756.59 553.319 753.5 553.512L752.173 552.173C750.833 550.827 749.65 549.992 747.939 549.167C744.574 549.183 741.829 552.479 739.449 554.681L737.857 553.321C735.152 551.24 732.423 552.085 729.314 552.541C730.009 549.981 731.845 547.374 733.12 545.006L740.141 531.05C745.516 519.153 749.161 506.984 753.073 494.578Z"/>
	<path fill="#146A22" d="M330.486 669.571C330.926 669.493 331.493 669.568 331.943 669.582C335.124 671.612 338.437 673.121 342.25 673.451C347.073 673.868 351.98 672.916 355.717 669.71L356.142 669.336C361.032 671.574 365.129 672.879 370.431 673.642L382.536 693.534L381.717 693.709L363.625 693.762L343.409 693.905C341.455 693.926 337.728 694.446 335.937 693.769C325.122 689.678 313.286 679.839 308.016 669.644C310.8 670.039 313.467 670.973 316.25 671.37C321.204 672.076 325.777 670.963 330.486 669.571Z"/>
	<path fill="#EED814" d="M270.952 589.991C274.792 591.154 278.147 592.972 282.168 593.707L282.746 593.807C284.397 598.714 285.799 603.753 287.71 608.565C289.19 612.29 291.227 615.751 292.652 619.5C290.207 623.064 281.531 616.726 278.319 616.546C274.518 616.333 273.371 622.831 269.768 623.844L269.25 623.971L260.708 625.672C258.637 624.953 255.962 622.079 254.231 620.608C244.792 612.517 234.969 603.312 228.375 592.726C230.766 592.843 233.147 592.991 235.5 593.464C237.02 593.77 238.646 594.446 240.203 594.388C242.648 594.297 245.364 592.895 247.422 591.698C247.604 591.592 247.758 591.34 247.965 591.376C248.316 591.436 249.954 592.753 250.37 593.03C252.562 594.491 254.861 595.542 257.518 595.791C263.666 596.367 266.608 593.762 270.952 589.991Z"/>
	<path fill="#EED814" d="M256.2 485.083L266.87 519.336C270.232 530.189 273.456 540.539 278.852 550.597C273.704 550.43 267.53 548.612 262.616 550.148C260.15 550.92 259.154 551.127 256.805 550.17L251.67 547.547C246.145 550.567 240.807 551.211 234.63 551.638L256.2 485.083Z"/>
	<path fill="#146A22" d="M339.616 604.649L340.195 605.196C345.437 609.825 354.036 609.465 360.449 608.93C365.175 617.204 369.686 625.155 376.135 632.24C372.632 632.175 368.75 632.332 365.328 631.574C361.408 630.706 357.451 628.404 353.826 626.659C350.836 629.03 347.862 631.85 343.931 632.268C338.191 632.878 336.097 630.726 331.872 627.42C328.321 628.223 325.391 630.67 321.932 631.682C316.344 633.318 315.803 630.151 311.5 628.459C308.592 627.315 304.746 630.694 302.221 631.936C300.66 632.704 299.454 633.132 297.75 632.544L297.495 631.75C299.846 629.916 302.31 627.983 304.109 625.582C305.683 623.48 306.72 620.814 307.965 618.5C309.339 615.945 310.989 613.428 312.6 611.011C313.838 609.156 315.366 606.932 317.555 606.138C318.974 605.623 319.663 605.968 320.995 606.55C323.029 607.438 324.999 608.221 327.233 608.44C331.695 608.877 335.693 607.89 339.156 605.038L339.616 604.649Z"/>
	<path fill="#146A22" d="M354.3 637.488C356.432 637.372 361.075 640.296 363.476 640.99C364.965 641.421 365.808 644.584 366.474 646C369.812 653.105 374.065 658.915 378.839 665.115C374.444 664.736 368.385 664.824 364.35 663.029C362.146 662.048 359.893 659.854 357.987 658.327C354.792 659.811 352.162 662.471 348.788 663.601C345.037 664.856 340.06 663.97 336.75 661.949C334.919 660.831 333.281 659.27 331.326 658.382L330.591 658.061C329.21 659.183 327.791 660.22 326.179 660.992C324.235 661.924 318.79 663.363 316.75 662.576C315.254 658.322 312.08 655.424 309.369 651.912C307.007 648.852 305.018 645.577 303.136 642.208L310.047 638.15C314.911 640.62 320.422 641.757 325.723 639.82C326.715 639.458 329.525 637.986 330.373 638.183C332.558 638.689 334.766 640.339 337.072 640.949C343.594 642.676 348.648 640.58 354.3 637.488Z"/>
	<path fill="#A2552E" d="M850.826 813.802L854.606 815.925C860.863 818.857 866.463 818.259 872.744 816.015L874.353 881.521L847.895 881.753L850.826 813.802Z"/>
	<path fill="#A2552E" d="M171.035 750.396C171.973 751.395 175.144 753.275 175.631 754.219C175.809 754.566 175.586 757.117 175.579 757.644L175.487 770.737C175.477 786.918 176.119 803.107 179.261 819.018L157.584 819.236L149.759 819.306C151.425 810.04 151.203 800.493 151.212 791.111L151.172 757.484C159.579 757.376 164.712 756.14 171.035 750.396Z"/>
	<path fill="#85C979" d="M164.551 388.386C166.471 394.32 167.487 400.702 168.885 406.789C174.404 430.832 179.867 457.371 196.506 476.382C194.784 477.203 192.917 477.803 191.25 478.729C189.414 479.748 188.01 481.113 186 481.868C184.443 481.522 183.023 481.155 181.709 480.207C179.253 478.435 180.258 475.77 179.508 473.25C179.06 471.746 178.025 471.229 176.75 470.514C176.073 470.523 174.579 470.34 174 470.548C171.097 471.589 170.202 477.07 169.057 479.584C168.312 481.218 167.345 482.271 165.992 483.425C164.34 483.549 161.954 483.854 160.38 483.315C154.349 481.252 158.553 476.275 156.382 472.097C155.157 471.006 154.71 470.626 153 470.465C149.501 471.366 147.724 475.332 145.925 478.17C141.9 479.46 134.397 478.578 130.146 478.216C133.826 474.02 137.452 469.824 140.213 464.948C147.877 451.417 151.767 435.562 155.916 420.693L164.551 388.386Z"/>
	<path fill="#2F8843" d="M860.057 443.598C861.035 450.309 862.819 456.992 864.341 463.598C870.081 488.519 877.546 515.36 894.54 535.068L886.639 535.078C885.79 535.583 883.349 537.056 883.026 538C882.435 539.729 883.459 540.807 882 542.312C881.53 542.208 880.075 542.053 879.75 541.813C877.22 539.937 879.012 535.477 875.75 533.512C874.555 532.793 873.413 532.58 872.057 532.833C867.315 533.721 868.665 539.438 866.644 542.643C864.763 543.949 862.414 543.695 860.201 543.76L858.807 543.24C855.073 541.461 855.744 537.911 854.395 534.75C853.913 533.619 853.219 532.772 852 532.43C845.874 530.708 846.977 539.939 843.276 542.276C842.403 542.827 841.535 543.167 840.513 542.995C840.011 540.344 840.793 539.108 839.462 536.509C836.519 534.738 830.332 535.396 826.729 535.149C830.825 530.238 834.827 525.278 837.981 519.688C847.236 503.28 851.765 484.566 855.586 466.275L860.057 443.598Z"/>
	<path fill="#2F8843" d="M850.317 547.466C851.742 548.054 853.156 549.286 854.551 550.036C858.912 552.377 863.788 552.697 868.37 550.746C869.669 550.193 872.046 548.165 873.198 547.958C873.494 547.905 877.301 549.817 877.914 550.044C880.942 551.163 883.262 551.491 886.445 551.274L887.264 551.215C893.797 561.388 900.417 572.391 908.836 581.121C910.289 582.627 912.839 584.605 913.712 586.449C910.825 586.935 907.891 587.521 904.975 587.789C903.098 587.961 900.774 587.754 898.969 588.188C894.763 589.198 892.765 592.025 887.75 591.382C884.282 590.937 880.696 588.969 878.59 586.155C877.25 584.364 876.133 582.019 874.59 580.415C873.576 579.36 872.335 579.065 870.915 579.308C869.416 579.565 868.809 580.849 868.081 581.986C866.676 584.989 865.111 587.548 862.092 589.144C859.371 590.582 854.405 591.419 851.488 590.186C848.516 588.929 846.798 586.66 845.893 583.75C845.612 582.844 845.39 581.839 844.935 581C844.353 579.928 842.961 578.969 841.75 578.852C837.817 578.472 835.62 585.452 833.068 587.843C827.581 592.981 813.939 591.095 806.688 590.994C811.298 586.243 816.072 581.54 820.217 576.374C826.55 568.482 831.753 559.879 836.46 550.942C841.823 551.907 845.193 550.946 849.706 547.887L850.317 547.466Z"/>
	<path fill="#85C979" d="M174.838 484.851C178.133 487.017 181.081 489.118 185.211 488.26L186.5 487.985C186.569 487.979 187.634 487.95 187.75 488.028C188.239 488.357 189.152 490.365 189.536 491L195.575 500.856C201.6 510.408 208.911 520.556 217.551 527.942L218.096 528.403C210.213 529.115 201.121 530.991 193.581 527.666C190.596 526.35 187.841 524.438 184.824 523.204C175.374 519.339 169.774 528.523 161.804 531.307C158.46 532.475 156.199 532.621 153.024 531.089C150.522 528.942 148.403 525.7 145.472 524.207C142.709 524.441 139.925 527.49 137.397 528.794L136.638 529.174C130.251 532.426 118.183 531.018 111.041 530.451C115.586 523.877 121.702 518.102 126.562 511.664L138.56 494.578C139.484 493.218 141.438 489.405 142.625 488.54C143.61 487.822 147.945 488.003 149.603 487.248C150.158 486.995 150.846 486.501 151.501 486.675C152.017 486.813 153.291 487.859 153.819 488.19C157.175 490.294 161.052 491.133 165.008 490.962C169.793 490.754 171.849 488.173 174.838 484.851Z"/>
	<path fill="#146A22" d="M643.266 622.193C646.612 625.114 649.787 627.548 654.185 628.736C657.952 629.754 662.173 629.488 666.047 629.468L683.389 629.25C687.283 629.153 691.562 628.759 695.418 629.168L687.539 639.477C685.775 641.736 683.45 644.145 682.798 647C683.11 648.519 683.419 649.39 684.562 650.485C688.189 653.961 700.464 652.465 705.487 652.41C703.851 655.483 701.391 658.443 699.25 661.191C693.794 668.196 688.012 674.565 680.805 679.827C673.689 678.022 672.056 677.933 666.566 682.816C665.286 683.954 665.011 684.553 663.267 684.661C657.137 685.039 650.686 684.617 644.523 684.62L608.811 685.021L633.495 662.021C636.351 659.301 640.938 655.884 642.477 652.25C642.325 650.427 642.238 649.884 640.884 648.617C639.123 646.969 635.851 647.111 633.572 647.029L619.059 646.813C627.693 638.993 635.905 631.252 643.266 622.193Z"/>
	<path fill="#EED814" d="M762.081 559.436C763.389 560.158 764.217 561.709 765.614 562.499C766.428 562.96 767.269 563.253 767.848 564.031C771.255 568.608 773.996 573.634 777.572 578.177C780.779 582.253 785.317 586.181 788.039 590.5L787.404 591.25C786.031 591.761 785.072 592.129 783.584 591.787C777.209 590.319 771.583 590.224 765.394 592.317C761.253 593.718 757.651 593.409 753.384 593.557C751.846 593.61 750.709 594.24 749.25 594.453C746.543 594.85 743.405 594.227 740.601 594.399C739.053 594.494 738.066 594.775 737.079 596.011C736.213 597.095 735.908 598.568 736.136 599.92C736.35 601.183 737.027 602.299 738.118 602.986C739.733 604.002 743.142 603.697 745 603.683C750.85 603.638 759.15 604.318 764.647 602.777L773.657 600.248C776.979 603.556 779.553 608.149 782.266 611.99L792.459 625.834C791.479 627.092 790.475 628.305 789.294 629.379C787.456 631.05 784.284 634.012 782.036 634.892C781.444 635.123 781.109 634.742 780.647 634.465C779.415 633.726 777.933 632.719 776.538 632.367C774.748 631.916 772.396 632.262 770.556 632.321C767.728 632.411 764.9 632.267 762.075 632.141C760.294 632.217 756.096 632.86 754.545 632.359C751.371 631.333 749.932 628.884 746.128 629.636C742.771 630.299 739.278 633.096 735.995 634.356C732.885 635.55 730.014 634.98 726.936 635.718C724.715 636.25 723.007 637.912 720.895 638.725C717.781 639.925 714.359 640.561 711.109 641.315C706.046 642.491 701.605 643.644 696.359 643.68C704.227 631.026 727.067 608.485 726.411 593.75C724.447 591.316 721.094 591.155 718.11 590.459C724.006 585.859 729.115 580.412 733.276 574.191C734.5 572.36 735.936 568.755 737.43 567.356C738.363 566.482 740.628 565.717 741.814 565.027C743.812 563.863 745.539 562.366 747.298 560.878C749.129 562.593 750.936 564.083 753.575 564.045C757.091 563.994 759.232 562.348 761.604 559.93L762.081 559.436Z"/>
	<path fill="#2F8843" d="M831.26 650.415L831.554 650.737C835.575 654.904 840.408 657.522 846.266 657.574C852.185 657.626 856.868 655.977 861.066 651.763L861.708 651.112C865.437 654.712 869.272 657.155 874.571 657.465C880.91 657.837 885.611 655.318 890.117 651.162C892.424 653.428 894.455 654.886 897.484 656.129C901.264 657.681 904.783 657.233 908.428 655.695L909.082 655.414C916.826 672.113 931.11 683.33 945.817 693.733L920.448 695.59C918.572 693.939 917.325 692.273 915.887 690.25C914.257 687.956 913.422 686.488 910.5 686.007C905.558 687.216 906.678 690.821 904.202 694.261C903.144 695.731 900.602 696.546 898.883 696.783C891.235 697.839 888.397 694.753 883.896 689.306L881.75 686.974C880.428 685.782 879.08 685.136 877.25 685.466C874.164 686.022 873.572 690.618 872.172 692.896C870.828 695.085 867.93 696.498 865.482 696.967C860.99 697.828 855.993 696.406 853.622 692.25C852.095 689.572 852.467 687.45 849.75 685.544C848.962 685.524 847.741 685.321 847 685.475C845.429 685.803 842.612 691.253 841.285 692.75C839.962 694.242 838.492 695.349 836.601 696.015C833.627 697.061 828.467 697.179 825.617 695.691C822.417 694.021 821.65 691.495 820.514 688.303C819.777 686.234 818.971 685.484 817 684.55C811.289 684.75 810.96 689.169 807.25 692.505C800.446 698.623 785.292 696.763 776.698 696.679C779.922 692.36 783.893 688.615 787.321 684.442C795.117 674.952 801.756 664.939 807.697 654.195C811.297 656.085 814.379 656.989 818.432 657.003C824.039 657.023 827.499 654.167 831.26 650.415Z"/>
	<path fill="#2F8843" d="M841.186 592.409L842.148 593.453C845.781 597.258 849.957 598.922 855.153 599.013C861.979 599.132 866.813 596.841 871.69 592.112L876.579 596.004C882.962 600.392 890.13 600.134 897.399 598.848C900.936 603.188 903.665 608.125 906.901 612.688C914.743 623.747 924.064 633.223 934.814 641.459L918.399 643.519C917.223 642.392 915.773 640.722 914.114 640.413C912.204 640.057 909.913 646.883 907.665 648.088C905.972 648.994 902.397 648.696 900.623 648.069C897.607 647.001 895.73 644.995 894.362 642.175C893.731 640.875 893.225 639.971 892.25 638.911C890.711 638.21 889.94 638.133 888.25 638.225C885.529 640.104 883.924 644.625 881.646 647.273C879.859 648.533 878.539 649.138 876.289 649.086C872.718 649.003 869.245 647.567 867.702 644.156C866.636 641.798 866.439 639.805 864.538 637.88C863.16 637.29 861.956 636.718 860.443 637.336C858.877 637.976 858.215 640.046 857.49 641.5C857.023 642.437 856.597 643.411 855.959 644.25C853.985 646.846 851.052 648.832 847.75 649.093C842.248 649.529 838.696 646.984 836.215 642.257C835.675 641.226 834.997 639.411 833.995 638.769C832.352 637.715 831.063 637.935 829.268 638.25C828.568 638.656 828.08 639.012 827.699 639.75L826.792 641.65C825.147 645.055 823.332 647.283 819.57 648.423C817.808 648.956 814.109 648.878 812.539 647.815C810.539 646.462 810.265 643.725 809.79 641.54C806.561 641.279 803.843 643.507 800.448 642.592L792.687 640.817C798.791 634.472 804.224 627.639 809.183 620.365L819.492 603.831C819.961 603.09 821.286 600.441 821.938 600.023C822.409 599.721 824.057 599.77 824.66 599.737C832.228 599.317 835.647 597.489 841.186 592.409Z"/>
	<path fill="#85C979" d="M179.284 529.409C182.604 530.319 185.482 532.443 188.452 534.138C193.299 536.904 198.499 539.289 204.149 539.57L204.829 539.597L224.455 563.932C229.234 569.7 234.806 575.219 239.101 581.335C239.623 582.078 239.709 582.62 239.797 583.5C239.448 583.828 239.179 584.271 238.75 584.483C238.368 584.672 236.448 584.514 235.961 584.52L225.999 584.655C223.851 582.485 221.534 580.68 218.805 579.302C213.317 576.531 212.373 585.667 207.208 587.159C201.373 588.846 197.713 586.534 194.614 581.912C193.774 580.66 193.12 579.25 191.75 578.519C187.188 579.408 186.516 586.15 182.047 588.024C176.684 590.272 171.493 587.686 168.142 583.421C166.527 581.365 165.452 579.217 163 578.143C161.136 578.709 160.814 579.121 159.493 580.474C158.264 582.258 157.094 583.975 155.345 585.302C153.307 586.848 150.499 587.619 147.959 587.08C143.097 586.048 143.439 581.107 141.125 577.891C140.304 576.751 139.83 576.889 138.524 576.705C136.041 578.095 135.171 581.288 133.148 583.403C127.659 589.143 122.847 588.304 117.011 583.961C116.332 583.456 114.749 581.907 114.015 581.689C112.439 581.221 107.916 582.235 106.036 582.402C102.239 582.739 98.4012 582.737 94.5907 582.801C106.49 570.158 119.11 556.749 127.499 541.439C130.214 541.377 133.212 541.507 135.842 540.792L136.5 540.598C140.1 539.557 143.019 537.985 145.826 535.513L146.31 535.078C148.693 536.634 151.156 538.439 153.938 539.183C163.649 541.777 171.674 533.736 179.284 529.409Z"/>
	<path fill="#85C979" d="M138.723 589.034C140.689 590.938 142.9 593.14 145.502 594.115C150.738 596.078 157.091 593.06 161.545 590.497C161.834 590.331 163.674 589.11 163.903 589.121C164.457 589.146 168.217 592.52 169.15 593.066C171.824 594.629 174.649 595.524 177.75 595.649C183.825 595.894 186.806 593.805 191.026 589.899C193.481 591.341 196.007 592.967 198.697 593.916C204.368 595.919 209.674 593.278 214.747 590.969C225.697 607.547 239.296 622.314 254.72 634.803C250.702 634.773 224.84 635.151 223.512 634.556C223.236 634.432 222.07 632.902 221.855 632.624C220.282 630.583 217.142 624.816 214.5 624.46C208.347 623.632 209.292 633.45 205.827 636.446C203.531 638.432 199.905 638.769 197.005 638.425C192.861 637.933 189.689 635.144 187.219 632.003L186.774 631.427C185.487 629.291 184.382 627.353 182.415 625.75C181.149 625.503 180.21 625.368 178.971 625.825C175.782 627 174.915 631.898 173.668 634.698C172.891 636.442 171.42 637.334 169.683 637.977C163.993 640.084 159.045 636.677 156.025 632C154.771 630.057 153.92 627.563 151.75 626.537C143.301 626.125 146.334 633.268 141.407 636.742C138.914 638.5 134.16 638.911 131.25 638.319C126.773 637.408 124.469 631.767 121.965 628.433C120.776 626.848 120.02 626.314 118 626C112.916 627.124 114.117 632.247 111.25 635.703C106.697 637.245 101.579 636.99 96.8306 636.999L77.7716 636.952C79.7614 634.411 83.3519 632.283 85.758 629.964C91.7085 624.229 97.4225 618.065 102.73 611.73C107.373 606.187 112.16 600.116 114.608 593.232L114.85 592.544L117.442 593.645C119.588 594.561 121.65 595.224 124 595.402C130.415 595.888 134.247 593.059 138.723 589.034Z"/>
	<path fill="#FAEFBF" d="M605.774 554.626C612.452 554.047 619.182 554.052 625.5 556.529C628.501 557.705 631.467 559.343 634.551 560.258C636.614 560.87 638.003 560.326 639.791 559.272L640.25 558.991C641.501 558.99 642.256 558.92 643.372 559.568C642.619 561.452 640.737 563.135 639.237 564.512C636.562 566.966 633.673 569.302 630.663 571.331C627.701 573.327 624.502 575.088 622.08 577.75C621.542 579.517 621.613 580.171 622.141 581.941C624.532 584.985 628.171 584.922 631.75 585.502C635.097 586.045 638.344 586.624 641.614 587.53C635.456 594.255 627.341 600.108 619.755 605.096C616.362 607.327 612.408 609.404 609.298 611.986C608.469 612.675 607.902 613.506 607.75 614.603C607.596 615.716 607.937 617.082 608.581 618C610.969 621.402 626.485 622.512 630.766 623.002L609.181 642.839L605.913 645.376C604.966 645.883 603.796 645.883 602.759 646.111C600.184 646.679 596.311 647.993 593.714 647.64C589.513 647.068 584.8 644.589 580.693 643.298L530.722 627.111C532.23 623.502 534.124 619.883 536.432 616.717C542.639 608.204 551.615 604.674 561.644 602.894C564.446 602.397 567.32 602.308 570.112 601.788C571.395 601.549 572.87 600.836 573.523 599.636C574.821 597.251 574.206 590.408 574.539 587.5C575.284 580.989 578.787 573.409 582.599 568.153C588.331 560.25 596.319 556.181 605.774 554.626Z"/>
	<path fill="#146A22" d="M646.592 616.021L646.111 615.912C638.782 614.302 630.76 614.067 623.273 613.427C632.928 606.785 642.297 599.544 650.951 591.635C652.901 589.853 656.638 587.148 657.133 584.5C657.358 583.295 657.271 582.254 656.511 581.25C654.966 579.206 650.149 579.632 647.743 579.25C645.052 578.823 642.327 578.11 639.707 577.368C644.823 572.438 649.851 567.509 654.509 562.139C656.66 559.66 659.001 557.259 660.378 554.25C660.244 552.42 660.213 552.458 658.929 551.134C655.532 550.494 651.386 551.666 648.374 550.854C655.184 543.602 661.067 534.179 665.446 525.25L665.25 523.514C662.618 521.427 660.19 522.006 657.008 522.155C664.921 512.377 671.863 501.528 675.443 489.393C676.138 489.823 676.563 491.709 676.867 492.513C677.995 495.5 679.161 498.3 680.666 501.121C684.579 508.457 690.116 515.565 695.886 521.54C692.971 521.561 689.313 521.179 686.608 522.25C685.809 523.449 685.681 524.282 686.013 525.75C686.535 528.062 688.272 530.749 689.474 532.802C693.563 539.79 698.311 545.51 703.711 551.482C700.852 551.529 695.153 550.937 692.979 552.785L692.548 553.25C693.207 560.993 706.836 576.098 712.486 581.661C709.347 583.034 703.905 585.184 702.522 588.5C702.787 591.019 704.41 592.16 706.256 593.666C709.328 596.173 712.334 598.252 715.87 600.063L702.64 618.855C700.731 621.924 698.036 626.718 695.418 629.168C691.562 628.759 687.283 629.153 683.389 629.25L666.047 629.468C662.173 629.488 657.952 629.754 654.185 628.736C649.787 627.548 646.612 625.114 643.266 622.193C644.046 620.149 645.539 617.983 646.592 616.021Z"/>
	<path fill="#1C4822" d="M646.592 616.021C648.304 617.495 650.237 617.921 652.366 618.533C660.064 620.745 667.34 620.118 675.25 620.161C681.015 620.194 686.723 620.472 692.484 620.032C695.899 619.771 699.217 618.94 702.64 618.855C700.731 621.924 698.036 626.718 695.418 629.168C691.562 628.759 687.283 629.153 683.389 629.25L666.047 629.468C662.173 629.488 657.952 629.754 654.185 628.736C649.787 627.548 646.612 625.114 643.266 622.193C644.046 620.149 645.539 617.983 646.592 616.021Z"/>
	<path fill="#2F8843" d="M815.346 696.978L817.549 699.699C821.29 703.569 825.646 706.016 831.109 706.056C838.384 706.109 843.109 703.275 848.148 698.344C849.185 699.487 850.234 700.603 851.443 701.57C856.191 705.369 861.584 706.358 867.519 705.473C872.735 704.695 876.191 701.293 879.234 697.286L881.769 699.938C886.871 704.688 891.799 706.353 898.694 706.045C903.511 705.83 907.611 703.595 910.776 700.051L911.248 699.513C912.91 700.698 914.589 701.98 916.394 702.931C917.374 703.447 919.15 704.045 919.933 704.755C921.272 705.968 922.036 711.84 922.764 713.874C923.641 716.329 924.742 718.664 925.99 720.951C932.693 733.24 945.996 742.481 957.304 750.186L942.398 750.42C938.38 750.504 933.441 750.873 929.803 748.888C926.128 746.883 923.635 743.424 919.75 741.535C912.29 741.735 915.788 746.391 911.79 749.789C909.507 751.729 905.111 751.299 902.328 751.008C900.03 750.344 897.802 749.275 896.283 747.368C894.226 744.784 893.519 741.849 890.25 740.499C889.464 740.542 888.254 740.439 887.527 740.649C885.602 741.203 884.555 743.713 883.488 745.25C882.051 747.32 880.402 749.279 878.041 750.31C875.442 751.445 871.796 751.621 869.175 750.494C866.31 749.263 864.386 746.847 863.293 744C862.856 742.859 862.54 742.034 861.75 741.072C860.147 740.669 857.851 740.2 856.398 741.333C855.481 742.048 854.684 743.735 854.016 744.737C852.198 747.462 849.733 749.864 846.598 750.987C841.586 752.784 835.482 750.805 832.39 746.544C830.626 744.113 830.162 741.122 827.25 739.767C822.813 739.875 820.211 746.087 816.931 748.734C813.555 751.46 810.224 751.984 806 751.36C801.747 750.732 799.763 748.261 797.222 745.125C796.521 744.261 795.683 743.307 794.5 743.134C792.549 742.848 786.235 747.227 783.74 747.87C778.599 749.194 773.034 748.771 767.823 748.214C768.176 747.121 769.605 746.133 770.465 745.32L778.646 737.461C784.593 731.471 789.853 724.71 794.817 717.898L801.802 707.859C802.371 707.003 803.395 704.907 804.139 704.311C805.064 703.57 807.121 703.019 808.25 702.436C810.996 701.018 813.102 699.061 815.346 696.978Z"/>
	<path fill="#2F8843" d="M181.45 639.284L183.654 641.75C188.525 646.267 194.331 647.95 200.863 647.522C206.658 647.142 211.159 643.839 214.815 639.637C219.772 644.738 223.675 650.515 228.052 656.089C238.783 669.756 250.924 683.708 265.469 693.282C260.277 693.65 254.994 693.523 249.788 693.53C247.343 693.533 244.381 693.851 242.043 693.199L241.5 693.031C236.798 691.631 233.656 687.23 229.302 685.828C224.118 684.158 223.641 692.793 219.596 694.661C217.933 695.429 216.282 695.351 214.5 695.127C210.507 694.625 207.936 692.151 205.574 689.102C204.414 687.604 203.269 685.607 201.301 685.107C195.121 683.539 194.496 692.744 189.923 695.345C185.811 695.783 182.239 694.828 179.668 691.339C177.471 688.357 177.051 685.42 173.5 683.555C172.888 683.567 171.52 683.412 171 683.605C166.86 685.144 167.415 691.195 163.726 693.728C160.952 695.633 158.028 695.314 154.917 694.763C150.025 692.48 150.294 689.886 147.25 686.175C145.98 684.625 144.672 684.268 142.75 684.065C142.267 684.219 140.945 684.468 140.603 684.75C138.192 686.741 137.42 690.724 134.647 693.036C132.274 695.014 129.272 695.68 126.234 695.378C118.548 694.616 119.192 688.492 114.944 684.006C113.963 682.97 112.967 682.412 111.5 682.497C107.315 682.741 106.485 687.151 103.972 689.746C102.464 691.302 99.9176 693.009 97.75 693.388C93.8723 694.064 89.4851 693.225 85.5561 693.101L68.1373 693.023C78.0741 684.349 88.3157 676.114 96.8362 665.962C100.051 662.132 102.903 658.061 105.221 653.628C106.216 651.724 107.234 647.992 108.498 646.519C108.84 646.12 110.951 645.36 111.5 645.108C114.284 643.83 116.191 642.405 118.477 640.416C122.655 644.378 128.191 647.402 134 647.711C141.039 648.085 145.537 644.787 150.434 640.243C154.387 643.72 158.6 647.21 164.089 647.502C171.857 647.915 176.034 644.218 181.45 639.284Z"/>
	<path fill="#2F8843" d="M111.661 695.76C112.365 696.801 113.096 697.812 113.969 698.719C120.042 705.027 130.659 705.225 137.987 701.12C138.877 700.621 143.249 696.941 143.555 696.925C143.807 696.913 143.906 697.288 144.083 697.469C147.948 701.424 152.199 703.846 157.844 704.022C164.181 704.219 168.604 701.422 173.008 697.238L174.485 698.789C177.972 702.277 182.267 704.197 187.25 703.999C192.277 703.799 196.444 701.64 199.792 698.013L200.326 697.429C201.505 697.54 203.196 699.318 204.25 700.038C207.958 702.573 212.31 704.055 216.819 703.87C221.678 703.671 225.79 701.594 229.024 698.065L229.537 697.5C230.351 698.742 233.194 700.177 234.5 701.069C237.019 708.769 240.981 716.087 246.401 722.135C254.337 730.991 266.22 738.306 276.08 744.944C266.539 746.712 254.188 746.38 245.115 742.752C242.056 741.529 238.438 739.173 235.206 738.729C232.425 738.346 230.509 742.474 228.813 744.25C227.77 745.342 226.511 746.282 225.311 747.195L223.425 747.974C216.626 750.436 208.617 742.033 202.673 739.358C199.613 741.077 197.969 743.604 195.438 745.893C191.357 749.585 183.832 748.801 179.524 745.968C176.379 743.901 174.215 739.728 170.105 739.741C167.718 739.748 166.016 742.221 164.463 743.786C158.476 749.821 152.17 749.491 145.648 744.616C142.924 742.579 140.934 740.354 137.344 740.45C134.786 740.519 133.364 742.588 131.678 744.268C126.894 749.035 119.973 750.478 114.244 746.174C111.636 744.214 109.108 740.12 105.676 739.75C99.8576 739.123 97.9691 746.061 93.1989 746.822C89.9924 747.333 85.9146 746.959 82.6393 746.959L59.5552 746.915C68.9766 739.873 80.0117 733.091 86.566 723.068C88.9294 719.454 90.8216 715.324 92.2166 711.243C92.6356 710.017 93.7786 704.147 94.2993 703.656C95.0036 702.993 100.547 702.065 102.027 701.476C105.562 700.07 108.585 697.963 111.661 695.76Z"/>
	<path fill="#EED814" d="M745.824 640.309C749.326 641.053 752.893 642.279 756.5 642.369C758.632 642.422 760.304 641.843 762.346 641.518C764.898 641.112 768.481 642.139 770.961 642.75C771.22 643.912 771.476 644.969 771.913 646.081C775.996 648.982 780.889 648.264 785.625 648.885L799.166 651.082L778.976 679.522C776.476 678.197 773.885 676.583 771 676.534C769.337 677.478 768.407 679.701 767.467 681.318L770.679 687.055C768.603 689.313 766.408 691.416 763.805 693.066C761.877 694.287 759.476 695.25 757.75 696.701C756.741 697.55 756.006 698.919 756.054 700.25C756.09 701.226 756.543 702.204 757.273 702.812C759.362 704.552 762.781 704.417 765.359 704.671C774.234 705.546 782.611 705.452 791.503 704.898C788.624 710.146 784.326 715.18 780.496 719.785C774.024 727.566 767.222 735.247 759.812 742.153C757.186 744.601 753.993 746.456 751.442 748.942C750.261 750.093 749.549 751.053 749.504 752.75C749.985 754.24 750.461 755.32 751.85 756.172C753.617 757.256 755.953 756.846 757.818 756.262C762.575 754.773 767.019 757.216 771.852 757.641C775.289 757.942 778.938 757.466 782.319 756.844L783 756.714C779.647 758.46 776.661 759.836 772.873 760.286C762.905 761.472 752.485 760.791 742.432 760.825L680.1 761.511L697.109 747.886C700.989 744.765 709.289 739.901 710.322 734.898C710.512 733.977 710.356 734.136 710.796 733.435C711.165 732.848 714.066 732.307 714.865 732.092C716.047 731.738 718.227 730.218 719.32 730.147C720.218 730.088 725.866 735.5 729.178 735.449C730.411 735.431 731.636 735.204 732.792 735.735C734.129 736.347 735.692 737.854 737.117 737.992C740.116 738.281 743.974 737.504 747.081 737.486C749.426 737.473 751.983 738.076 754.277 737.85C755.868 737.693 757.379 736.798 758.334 735.523C759.624 733.803 759.605 732.247 759.25 730.232C758.843 729.792 758.23 728.905 757.75 728.609C754.477 726.587 743.753 728.914 739.356 727.932C732.291 726.353 727.146 723.28 721.268 719.323L719.5 719.891C716.562 720.852 713.209 723.708 710.396 724.002C707.044 724.353 704.939 726.663 701.865 727.672C694.774 729.998 684.811 730.334 677.328 730.686C682.854 723.849 689.94 717.879 695.822 711.262L707.724 696.625C710.88 692.541 713.664 688.644 717.706 685.386L722.25 689.453C724.295 689.627 725.757 689.373 727.717 688.757C728.919 688.38 731.678 690.125 733 690.631C737.067 692.187 738.886 690.248 742.68 689.713C743.489 689.599 744.532 690.101 745.327 690.255C749.436 691.05 753.572 690.31 757.316 688.538C759.497 687.506 761.67 686.571 763.701 685.25C764.234 684.44 764.781 683.739 764.915 682.756C765.096 681.435 764.961 681.013 764.141 679.967C761.134 676.132 756.025 680.2 752.572 680.66C750.701 680.91 748.338 680.498 746.5 680.128C742.804 679.385 739.515 680.303 735.867 681.028C732.125 678.769 729.183 679.834 725.19 679.152C723.077 678.792 719.619 675.672 717.734 675.741C715.386 675.827 710.801 679.546 708.433 680.65C703.388 683 697.701 683.817 692.217 684.319C696.291 678.183 701.569 672.789 706.085 666.955L714.156 655.823C715.531 653.851 717.225 650.974 719.228 649.606C720.925 648.446 722.589 649.696 724.326 649.298C725.116 649.118 726.961 647.708 727.723 647.225C731.151 645.052 734.16 645.349 737.922 644.427C741.094 643.65 743.231 642.193 745.824 640.309Z"/>
	<path fill="#2F8843" d="M859.034 752.66L862.038 755.929C865.151 758.824 869.991 760.695 874.25 760.488C880.727 760.173 884.437 756.933 888.694 752.496C891.936 755.958 896.188 758.614 900.913 759.443C908.793 760.824 914.682 758.558 921.046 754.152C921.978 754.745 926.651 757.249 926.965 757.918C927.508 759.076 927.372 762.43 927.56 763.865C928.501 771.053 932.049 778.612 936.385 784.363C942.017 791.833 950.229 798.487 958.067 803.548C960.365 805.032 963.189 806.089 965.259 807.837C960.045 806.796 954.75 806.372 949.5 805.524C948.047 805.29 944.646 804.24 943.325 804.479C942.68 804.595 941.384 805.526 940.767 805.852C936.376 808.173 932.939 808.902 928 808.53C923.764 808.21 919.164 805.996 915.292 804.288C913.596 803.54 911.155 802.095 909.302 802.243C905.327 802.56 902.809 807.962 898.432 808.739C889.916 810.251 885.458 804.478 879.392 799.934C877.31 802.071 875.229 804.429 872.847 806.234C868.807 809.294 864.36 809.119 859.586 808.533C854.62 806.788 853.806 802.72 849.75 800.5C846.806 800.782 845.584 802.821 843.344 804.61C838.729 808.295 833.87 809.749 828 808.855C823.715 808.203 822.657 805.127 820.25 802.022C815.991 801.743 813.587 804.083 810.063 806.133C806.395 808.266 802.24 809.629 797.962 809.076C792.353 808.352 792.378 805.339 788.962 802.026C787.588 800.694 784.717 800.876 782.991 801.314C780.348 801.985 778.049 804.169 775.593 805.35C769.543 808.257 762.17 807.851 755.608 808.083C755.649 807.894 763.986 799.079 764.916 797.894L774.255 784.911C781.244 775.375 788.362 765.734 794.618 755.701C798.26 757.983 801.614 759.938 806 760.415C813.01 761.176 819.513 758.606 824.769 754.058L825.259 753.629C830.688 756.825 835.391 760.053 842 760.332C849.201 760.636 854.06 757.361 859.034 752.66Z"/>
	<path fill="#FAEFBF" d="M405.026 439.587C408.798 439.205 412.687 439.19 416.226 440.715C421.567 443.018 425.358 448.274 429.076 452.556L441.053 466.356C442.987 468.657 445.198 472.059 447.738 473.619C448.83 474.29 450.006 474.677 451.29 474.411C454.378 473.769 458.669 470.037 461.336 468.321L479.741 456.911C485.212 453.596 490.986 450.008 497.206 448.323C505.6 446.05 513.033 447.339 520.479 451.605C520.856 460.488 521.48 468.162 523.538 476.852C513.507 477.818 504.39 480.25 495.558 485.2C482.673 492.422 472.741 505.551 468.852 519.75C464.866 534.301 467.319 549.974 474.757 562.99C470.813 562.431 466.389 562.256 462.433 562.763C454.644 563.763 446.997 565.967 440.304 570.193C429.025 577.316 422.682 588.285 419.796 601.026L374.596 595.562C369.503 591.684 365.182 586.679 361.993 581.148C365.641 581.047 370.63 581.29 373.75 579.037C375.042 578.104 375.77 577.123 375.888 575.5C375.968 574.416 375.581 573.193 374.948 572.318C372.775 569.315 368.923 566.631 366.132 564.115C362.289 560.65 358.746 557.046 355.273 553.213L362.333 551.217C364.364 550.377 366.972 549.462 368.06 547.401C368.575 546.427 368.153 544.601 367.828 543.567C367.425 542.282 365.865 541.064 364.914 540.106L356.818 531.684C354.223 528.783 351.773 525.708 349.504 522.546C347.309 519.487 345.3 516.152 343.58 512.8C342.325 510.353 341.143 505.978 339.25 504.069C339.026 503.843 337.928 503.323 337.731 503.25C336.756 502.886 335.625 502.843 334.697 503.25C331.664 504.58 329.801 512.041 328.197 515.12C325.116 521.036 320.978 526.541 316.567 531.525C312.897 535.673 306.554 539.615 304.586 544.75C304.67 545.868 304.795 546.571 305.454 547.507C308.07 551.225 313.329 551.769 317.465 552.528C315.146 555.169 312.857 557.888 310.363 560.365C306.968 563.738 298.822 569.518 297.797 574.25C297.455 575.827 297.648 577.116 298.75 578.362C301.379 581.334 306.637 581.248 310.254 581.478C306.092 587.278 300.671 592.328 295.716 597.445L295.259 597.419C294.399 596.665 293.032 595.741 292.624 594.659C292.408 594.087 295.124 590.968 295.587 590.009C298.208 584.572 289.742 573.194 287.25 568.481C285.802 565.742 284.689 562.969 283.728 560.028C287.378 558.716 290.29 558.52 292.491 555C292.966 549.994 286.727 546.172 284.448 541.669C280.361 533.593 277.741 523.99 275.613 515.22C279.145 512.212 283.8 509.958 287.798 507.593L311.245 493.68L365.009 460.971L392.663 444.544C396.675 442.362 400.618 440.761 405.026 439.587Z"/>
	<path fill="#85C979" d="M805.153 962.492L805.695 962.494C807.75 962.466 808.879 962.228 810.29 960.681C818.112 952.096 820.161 934.67 819.365 923.5C818.306 908.644 810.476 894.597 799.151 885.122C783.817 872.292 763.805 866.31 744.75 861.509L707.504 853.781C686.765 849.938 625.775 841.613 622.609 815C622.038 810.2 624.212 804.905 625.824 800.459C627.017 797.171 628.487 793.759 629.164 790.317C631.763 777.089 626.724 766.25 616.685 757.744C607.83 750.241 597.475 745.267 586.805 740.906L564.506 732.474C552.286 728.367 500.983 714.356 500.517 700.75C500.397 697.246 504.868 693.502 507.305 691.385C513.904 685.651 521.71 681.524 529.531 677.72C547.846 668.812 567.094 662.641 586.947 658.27C597.442 655.959 607.897 653.729 618.702 654.508L627.294 655.336C619.639 663.181 611.241 670.421 602.983 677.626C599.596 680.582 595.573 683.217 592.619 686.594C591.45 687.93 591.084 689.009 590.989 690.75C591.566 692.226 591.923 693.34 593.5 694.089C594.553 694.589 656.741 694.213 663.25 693.992C664.882 693.937 666.596 693.642 668.104 692.992C670.554 691.935 672.493 689.97 674.405 688.164C675.647 690.388 676.79 693.576 679.463 694.253C680.561 694.531 681.522 693.976 682.567 693.628C683.544 692.592 684.17 691.874 684.75 690.544C685.719 690.55 685.274 690.393 686.036 691.049C689.608 694.122 692.382 694.641 697.123 694.275L697.7 694.225C691.2 701.861 684.786 709.414 677.693 716.51L667.303 726.636C665.599 728.286 663.499 729.969 662.097 731.85C661.295 732.926 661.189 733.971 661.107 735.25C661.643 736.869 661.911 737.441 663.25 738.497C666.605 739.469 670.793 739.024 674.292 739.022L693.298 738.91L676.487 752.77L666.767 759.973C665.788 760.691 663.841 761.825 663.155 762.75C662.883 763.117 662.527 764.025 662.463 764.5C662.24 766.165 662.491 767.788 663.75 768.98C666.023 771.131 674.995 770.353 678.11 770.374L731.817 770.024C731.336 779.003 730.673 787.871 728.742 796.676L726.488 805.281C725.962 806.948 725.042 808.763 724.955 810.505C724.886 811.892 725.364 813.412 726.25 814.487C727.943 816.542 730.189 816.649 732.672 816.738L750.25 816.674C756.885 816.707 763.661 817.329 770.261 816.43C773.877 815.938 777.426 814.619 780.809 813.292C781.309 813.096 784.178 811.747 784.393 811.791C785.003 811.916 787.037 813.715 787.708 814.148C789.274 815.158 791.073 815.867 792.843 816.419C799.004 818.341 806.374 817.911 812.26 815.226C813.507 814.657 815.734 813.024 816.948 812.808C817.284 812.748 817.529 813.167 817.821 813.346C823.454 816.79 829.043 818.663 835.726 817.264C837.72 816.847 839.765 815.937 841.784 815.84L839.304 866.914L838.409 881.61C838.301 884.182 838.052 886.733 838.728 889.25C839.868 890.279 840.212 890.575 841.733 890.811C847.402 891.692 854.163 891.029 859.941 891.046C866.363 891.065 873.123 891.632 879.505 891.115C881.41 890.96 882.207 890.395 883.447 889C884.194 886.035 883.909 882.833 883.876 879.788L883.677 864.097C888.441 870.89 893.182 877.827 896.436 885.5C901.343 897.069 901.995 910.187 899.85 922.449C897.755 934.421 891.69 945.781 884.306 955.299C882.231 957.974 878.613 961.079 877.086 964C876.421 965.271 876.571 966.289 876.767 967.631L803.196 967.463C803.417 965.292 803.708 964.155 805.153 962.492Z"/>
	<path fill="#000001" d="M602.173 698.826C603.16 699.045 603.853 699.15 604.7 699.75C606.821 701.252 618.788 721.366 619.034 723.699C619.173 725.011 618.773 726.125 617.75 726.992C616.386 728.149 615.179 727.963 613.562 727.857C610.322 725.889 607.581 720.196 605.509 717.039L605.41 727.25L603.375 728.938C602.057 728.677 601.152 728.396 599.947 727.75C598.393 725.126 599.031 720.667 599.016 717.559C596.101 720.852 594.043 726.953 590 728.397C588.308 728.136 587.779 727.939 586.547 726.75C585.947 725.333 585.564 724.308 585.977 722.75C586.525 720.682 588.163 718.612 589.311 716.828L594.734 708.238C596.217 705.888 597.76 702.644 599.658 700.658C600.372 699.911 601.285 699.339 602.173 698.826Z"/>
	<path fill="#FAEFBF" d="M600.571 372.702L601.483 372.636C611.85 372.047 623.13 376.228 630.846 383.119C638.331 389.804 644.033 398.686 645.253 408.827C645.529 411.122 645.234 413.475 645.503 415.75C645.659 417.07 646.425 418.637 647.7 419.25C649.426 420.08 652.315 419.442 654.15 419.3C661.595 418.726 668.53 420.196 674.613 424.724C680.898 429.403 685.408 436.441 686.535 444.25L686.636 445C687.296 449.499 685.002 457.18 687.75 460.55C689.437 461.225 690.591 461.585 692.285 460.652C695.783 458.724 699.118 454.522 702.106 451.797C709.261 445.27 716.799 439.217 724.883 433.876C729.094 431.094 734.354 427.748 739.5 427.334C743.933 426.978 748.095 429.03 751.608 431.549C760.672 438.048 768.595 447.593 776.183 455.737L812.101 493.561C818.302 499.995 824.193 506.927 830.989 512.734C827.715 518.256 824.345 523.922 819.784 528.502C817.866 530.427 813.222 533.753 812.744 536.493C812.536 537.681 812.817 538.919 813.515 539.899C816.097 543.524 824.042 543.947 828.245 544.612C820.875 560.67 811.047 574.77 796.965 585.629C789.082 578.169 783.063 569.511 776.783 560.727C779.777 560.585 783.224 560.275 785.935 558.883C787.712 557.97 788.8 556.872 789.452 555C788.925 552.125 786.373 549.317 784.813 546.868C782.565 543.34 780.521 539.705 778.63 535.974C772.09 523.07 767.375 508.966 762.895 495.223L759.872 485.5C758.974 482.183 758.631 477.985 755.824 475.75C754.023 475.211 752.85 475.273 751 475.545C749.918 476.232 749.042 476.819 748.482 478.04C746.556 482.242 745.699 487.666 744.341 492.176C741.562 501.404 738.385 510.693 734.699 519.598C729.874 531.254 724.013 542.048 717.61 552.897C714.856 549.717 711.495 546.995 708.586 543.932C704.297 539.414 701.222 534.889 698.623 529.243C700.989 528.924 706.13 528.687 707.975 527.186C709.061 526.302 709.596 525.123 709.786 523.76C710.125 521.329 701.234 513.984 699.126 511.869C694.061 505.826 689.68 499.648 686.489 492.393C684.692 488.309 683.194 484.103 681.79 479.871C681.311 478.426 680.749 475.435 679.956 474.25C679.681 473.839 678.947 473.178 678.5 472.905C677.105 472.053 675.528 472.22 674 472.48C670.089 474.797 668.354 483.535 666.856 487.702C663.253 497.719 657.905 506.971 651.01 515.082C648.421 518.127 644.826 520.677 643.044 524.25C643.047 525.437 642.791 526.45 643.521 527.433C645.207 529.704 649.342 529.84 651.946 530.273C651.722 531.615 650.001 533.516 649.184 534.669C645.132 540.393 641.011 545.974 635.491 550.399C634.654 551.069 633.796 550.277 632.874 549.895C627.665 547.738 622.82 546.301 617.183 545.75C604.589 544.518 592.077 547.553 582.333 555.789C570.661 565.655 566.756 578.764 565.446 593.441C558.649 594.115 552.077 595.006 545.835 597.965C534.794 603.2 526.612 612.87 522.612 624.349C518.486 623.829 514.017 621.906 509.968 620.717L490.751 615.572L428.682 602.301C430.716 593.756 434.288 586.587 441.052 580.81C449.897 573.256 461.918 570.092 473.384 571.826C476.714 572.33 480.174 573.93 483.487 574.044C485.318 574.107 486.158 573.439 487.455 572.25C487.936 571.085 488.576 569.645 488.167 568.374C487.468 566.206 485.428 563.88 484.179 561.956C480.947 556.98 478.447 551.804 477.103 546C474.271 533.774 475.909 520.186 482.716 509.505C490.504 497.286 502.831 489.667 516.75 486.386C521.18 485.341 525.344 485.892 529.739 485.282C531.057 485.099 532.052 484.529 532.854 483.478C534.786 480.945 531.971 474.519 531.231 471.786C530.552 469.276 530.031 466.577 529.74 463.994C527.448 443.666 534.851 424.526 553.521 414.708C555.948 413.431 562.203 411.85 563.75 409.924C565.559 407.672 564.632 403.677 565.265 400.947C566.464 395.775 568.738 391.146 572.083 387.036C579.615 377.783 588.945 373.876 600.571 372.702Z"/>
	<path fill="#B2DFEB" d="M331.145 963.471C332.988 962.653 334.11 962.031 335.25 960.334C335.823 958.029 334.902 956.401 334.25 954.255C331.193 944.193 332.566 933.074 336.949 923.616C341.324 914.178 348.323 906.542 356.34 900.041C378.363 882.179 406.894 873.418 433.298 864.201L474.456 848.656C489.521 842.234 507.865 833.496 515.854 818.296C518.647 812.982 519.68 806.181 519.075 800.25C518.504 794.647 516.921 789.534 513.889 784.75C510.288 779.069 504.533 774.19 499.25 770.116C481.266 756.248 458.994 747.777 442.367 732.25C436.689 726.947 431.557 720.809 429.265 713.249C427.248 706.598 428.783 699.177 432.068 693.198C435.606 686.758 441.245 681.891 447.196 677.73C470.655 661.325 502.56 654.921 530.222 649.222C538.175 647.584 546.713 646.804 554.465 644.421C556.144 643.905 573.787 650.193 576.974 651.32C555.887 657.542 535.327 663.977 516.134 674.968C508.184 679.521 494.754 688.078 492.514 697.533C489.337 710.942 507.208 721.076 517.327 725.574C543.921 737.392 602.105 747.602 617.667 772.021C625.664 784.57 616.978 795.577 614.422 808.072C612.993 815.055 614.501 822.796 618.485 828.709C635.277 853.633 696.075 860.115 724.486 866.001C751.357 871.569 787.423 878.729 803.347 903.401C811.566 916.135 812.221 932.544 807.517 946.666C806.219 950.565 803.597 954.041 802.715 958C803.011 959.899 803.463 960.638 804.756 962.066L805.153 962.492C803.708 964.155 803.417 965.292 803.196 967.463L331.419 968.44L330.688 964L331.145 963.471Z"/>
	<path fill="#000001" d="M457.254 691.069C460.037 690.693 463.732 690.52 466.031 692.456C467.319 693.541 467.336 694.737 467.469 696.25C466.67 697.982 465.915 698.49 464.282 699.431L463.805 699.472C461.174 699.653 457.009 700.174 455.104 697.899C454.083 696.678 454.161 696.017 454.082 694.5C454.798 692.687 455.649 692.121 457.254 691.069Z"/>
	<path fill="#000001" d="M505.346 742.226C508.156 742.113 511.096 741.97 513.868 742.527C515.255 742.805 516.79 743.891 517.383 745.215C518.014 746.623 517.727 747.97 517.046 749.25C515.692 750.172 514.74 750.35 513.125 750.533C510.112 750.511 506.501 750.814 503.582 750.079C501.805 749.632 500.861 748.777 499.941 747.25C499.82 746.012 499.873 745.22 500.71 744.21C501.879 742.8 503.637 742.466 505.346 742.226Z"/>
	<path fill="#000001" d="M388.648 918.541C392.045 918.314 398.632 917.735 401.5 919.467C402.476 920.597 403.281 921.662 403.153 923.25C402.999 925.144 401.622 925.981 400.34 927.179C397.766 927.569 390.549 928.032 388.354 926.592C387.198 925.833 386.605 924.357 386.549 923.028C386.468 921.11 387.473 919.905 388.648 918.541Z"/>
	<path fill="#000001" d="M554.35 836.066L557.182 835.988C560.091 835.969 566.289 835.309 568.25 837.586C569.329 838.837 569.342 839.713 569.304 841.25C568.592 842.907 567.861 843.478 566.381 844.475L555 844.582C553.717 844.49 552.554 843.896 551.892 842.75C551.229 841.602 551.144 840.274 551.419 839C551.736 837.535 553.187 836.816 554.35 836.066Z"/>
	<path fill="#000001" d="M591.308 786.665L601.75 787.153C602.958 788.081 603.77 788.657 604.108 790.25C604.361 791.445 604.043 793.309 603.287 794.25C602.182 795.625 600.721 795.55 599.125 795.811C595.653 795.871 591.901 796.204 588.5 795.489C587.362 794.676 586.631 793.904 586.334 792.5C586.021 791.022 586.345 789.788 587.25 788.577C588.16 787.36 589.92 786.99 591.308 786.665Z"/>
	<path fill="#000001" d="M550.572 763.662L560.5 763.648C562.145 763.727 563.662 764.074 564.75 765.424C565.835 766.771 565.591 768.143 565.462 769.75C564.578 771.292 563.749 771.741 562.182 772.529L552.314 772.677C550.269 772.578 549.274 772.442 547.97 770.75C547.059 769.568 547.169 768.135 547.291 766.75C548.198 765.033 548.845 764.523 550.572 763.662Z"/>
	<path fill="#000001" d="M596.466 898.143C600.706 898.063 609.006 896.73 612.25 899.608C613.057 901.227 613.131 901.946 612.998 903.75C612.172 905.238 611.733 905.676 610.237 906.488L605.471 906.515C602.323 906.528 596.537 907.456 594.407 904.75C593.582 903.701 593.56 902.229 593.927 901C594.4 899.416 595.156 898.963 596.466 898.143Z"/>
	<path fill="#000001" d="M640.294 874.598C643.714 874.365 653.837 873.409 656.25 875.632C657.388 876.681 657.716 877.991 657.561 879.5C657.375 881.32 656.162 881.988 654.887 883.09C652.035 883.503 642.177 884.192 640 882.433C638.755 881.427 638.194 880.081 638.125 878.5C638.052 876.808 639.187 875.712 640.294 874.598Z"/>
	<path fill="#000001" d="M549.247 938.614C553.452 938.443 562.205 937.448 565.597 939.898C566.628 941.692 566.507 942.237 566.478 944.25C565.612 945.792 564.985 946.259 563.407 947.031C559.038 947.141 552.075 948.217 548.134 946.346C546.983 944.955 546.306 944.205 546.492 942.25C546.675 940.331 547.88 939.691 549.247 938.614Z"/>
	<path fill="#000001" d="M730.665 901.653L741.779 901.643C743.806 901.773 745.394 902.12 746.705 903.8C747.396 904.687 747.641 905.778 747.402 906.881C746.976 908.848 745.691 909.654 744.056 910.508L740.827 910.615C736.911 910.7 730.861 911.567 727.924 908.75C727.346 907.502 727.069 906.681 727.35 905.296C727.775 903.201 728.985 902.649 730.665 901.653Z"/>
	<path fill="#000001" d="M690.47 929.728C694.232 929.698 704.813 928.464 707.411 931.087C708.502 932.188 708.443 933.326 708.459 934.75C707.503 936.627 707.088 936.837 705.386 937.947L693.7 938.006C692.431 938.001 690.749 938.193 689.542 937.768C688.485 937.395 687.671 936.456 687.25 935.434C686.68 934.049 687.012 932.805 687.558 931.5C688.514 930.516 689.177 930.176 690.47 929.728Z"/>
	<path fill="#000001" d="M499.464 874.216C503.562 874.18 510.869 873.249 514.569 874.649C515.504 875.003 516.296 876.083 516.645 876.979C517.135 878.235 517.157 879.808 516.453 881C515.579 882.479 514.373 882.435 512.875 882.75L499.5 882.506C497.836 882.329 497.179 881.594 496.138 880.418C495.609 878.656 495.606 878.3 496.001 876.5C497.3 875.002 497.575 874.814 499.464 874.216Z"/>
	<path fill="#000001" d="M448.642 930.522C452.083 930.496 463.852 929.307 466.25 931.561C467.249 932.499 467.639 933.911 467.519 935.25C467.368 936.93 466.361 937.791 465.221 938.88L464.669 938.931C461.148 939.19 450.177 940.297 447.75 937.849C446.868 936.96 446.541 935.978 446.495 934.763C446.418 932.731 447.322 931.867 448.642 930.522Z"/>
	<path fill="#85C979" d="M184.141 968.463C184.26 967.756 184.432 966.976 184.409 966.25C184.367 964.96 184.156 963.64 183.16 962.753C182.136 961.841 180.415 961.34 179.154 960.787L172.25 957.374C163.235 952.451 154.592 945.733 147.627 938.163C132.717 921.957 124.943 901.015 125.944 879.02C126.711 862.168 131.716 846.952 141.983 833.5C142.45 832.888 145.224 828.935 145.713 828.795C147.129 828.391 150.173 828.857 151.75 828.863L178.683 828.892C180.895 828.888 185.756 829.385 187.75 828.421C188.235 828.186 188.944 827.326 189.37 826.936C190.911 823.08 188.255 815.947 187.515 811.937L185.75 799.411C184.317 785.505 184.38 771.361 184.649 757.4C192.074 757.488 197.869 755.917 203.717 751.265L204.368 750.743C207.306 752.928 210.094 754.783 213.655 755.862C220.159 757.832 225.781 756.728 231.674 753.658C231.543 759.347 231.227 765.187 230.373 770.818C229.88 774.069 228.894 777.493 228.65 780.75C228.59 781.549 228.848 782.487 229.346 783.119C230.166 784.161 231.286 784.48 232.537 784.548L263.43 784.791C265.295 784.792 271.273 785.287 272.75 784.439C273.307 784.12 273.696 783.571 274.169 783.136C275.215 780.57 274.452 778.413 273.686 775.883C271.616 769.042 271.606 761.174 271.304 754.046C274.92 753.788 282.66 754.145 285.292 751.505C286.534 750.259 286.897 748.856 286.744 747.132C286.293 742.05 281.374 738.52 277.854 735.45C280.043 734.698 282.576 732.97 284.705 732.471C285.404 732.307 287.644 733.171 288.427 733.387C290.147 733.864 291.971 734.117 293.748 734.265C301.646 734.921 310.094 734.337 318.036 734.197C320.508 734.153 324.335 734.553 326.672 733.813C328.613 733.199 329.195 731.952 329.997 730.25C329.983 728.659 329.934 727.983 328.863 726.75C326.574 724.113 322.856 721.854 320.074 719.71C313.368 714.543 307.265 709.138 302.141 702.357L389.306 702.511C391.206 702.437 392.734 702.171 394 700.619C394.903 699.513 395.581 697.838 395.157 696.441C394.636 694.719 393.013 692.86 392.003 691.371L384.969 680.211C383.89 678.368 382.575 676.386 382.32 674.25C385.392 673.009 388.804 674.27 391.93 673.334C393.084 672.988 394.142 671.976 394.637 670.886C395.244 669.549 395.032 668.146 394.206 666.975C392.54 664.615 389.791 662.531 387.75 660.44C381.725 654.27 377.686 648.514 374.153 640.684C378.474 639.502 382.852 639.238 387.25 638.495C388.459 637.363 388.862 637.006 389.273 635.411C389.624 634.051 389.12 632.49 388.338 631.351C386.099 628.093 382.433 625.332 379.783 622.334C376.107 618.174 373.358 613.108 370.492 608.385C371.328 607.795 370.92 608 371.93 607.642C373.226 607.181 374.732 606.839 375.726 605.834L376.25 605.259C419.559 606.667 463.086 617.097 504.778 628.271C516.178 631.327 527.394 636.057 538.898 638.512C532.175 640.501 524.785 641.412 517.914 642.959C494.392 648.256 469.527 654.549 448.556 666.792C436.684 673.723 424.453 684.416 420.902 698.272C418.821 706.391 419.908 713.949 423.509 721.408C434.796 744.786 463.268 756.743 484.238 770.021C492.723 775.394 502.043 781.882 507.192 790.741C510.496 796.426 511.619 803.449 509.833 809.82C507.364 818.628 499.458 825.426 492.039 830.206C480.599 837.578 467.268 842.616 454.568 847.429C425.967 858.27 395.75 866.59 368.877 881.388C349.722 891.936 331.902 907.59 325.729 929.214C323.385 937.423 322.94 946.423 324.959 954.75C325.441 956.737 326.003 959.218 327.111 960.96C328.013 962.377 329.125 962.984 330.718 963.376L331.145 963.471L330.688 964L331.419 968.44L184.141 968.463Z"/>
	<path fill="#000001" d="M228.461 913.423C229.811 913.739 231.276 914.083 232.25 915.163C233.517 916.566 233.672 917.928 233.498 919.75C233.231 922.559 232.39 925.502 231.818 928.266C230.855 932.912 230.889 937.468 227.127 940.72C225.725 940.357 224.014 939.958 223.073 938.75C222.688 938.256 222.173 937.313 221.992 936.75C221.474 935.134 222.702 931.665 223.067 929.93L224.779 919.56C225.329 916.199 225.729 915.383 228.461 913.423Z"/>
	<path fill="#000001" d="M264.062 831.882C265.197 831.967 266.619 831.99 267.525 832.773C268.737 833.822 269.49 835.167 269.515 836.793C269.555 839.348 268.765 842.268 268.358 844.789C267.583 849.588 267.664 855.046 264.177 858.734C262.287 858.703 260.638 858.587 259.264 857.168C258.285 856.157 258.208 854.998 258.291 853.666C258.491 850.408 259.399 847.16 259.892 843.933C260.309 841.203 260.388 837.449 261.444 834.956C261.964 833.729 263.099 832.766 264.062 831.882Z"/>
	<path fill="#000001" d="M233.341 831.41C235.145 831.37 237.082 831.145 238.369 832.614C240.588 835.146 240.845 843.46 241.468 847C241.935 849.656 242.887 852.536 242.499 855.25C242.245 857.034 240.843 857.916 239.532 858.984C238.185 858.732 237.04 858.77 236 857.822C233.617 855.647 232.453 845.918 231.705 842.453C231.274 840.455 230.445 837.786 230.581 835.75C230.721 833.637 231.954 832.802 233.341 831.41Z"/>
	<path fill="#000001" d="M197.894 912.373C199.373 912.456 201.085 912.593 202.25 913.636C204.51 915.66 204.769 920.163 205.31 922.98C206.097 927.073 207.667 932.333 207.436 936.5C207.329 938.432 206.132 939.109 204.812 940.288C203.399 940.379 202.347 940.123 201.009 939.75C198.051 937.161 197.988 932.694 197.25 929.007C196.519 925.354 195.524 921.598 195.337 917.865C195.194 915.018 196.035 914.297 197.894 912.373Z"/>
	<path fill="#000001" d="M211.833 895.888C213.199 895.778 214.855 895.608 216.062 896.379C217.613 897.371 218.09 899.185 218.256 900.905C218.891 907.499 218.698 914.427 218.748 921.062C218.762 922.978 219.136 926.621 218.255 928.25C217.95 928.814 217.228 929.459 216.8 929.964C215.215 929.946 213.453 929.963 212.149 928.928C210.757 927.823 210.687 926.416 210.565 924.788L209.605 907.204C209.53 904.593 209.214 901.452 209.929 898.936C210.26 897.77 211.052 896.789 211.833 895.888Z"/>
	<path fill="#000001" d="M413.392 632.376C414.641 632.414 415.849 632.43 417 632.993C418.478 633.717 419.158 635.199 419.712 636.641C421.648 641.682 424.872 646.637 426.308 651.75C425.854 653.166 425.47 653.993 424 654.608C422.608 655.19 421.208 654.803 420 654.007C418.216 652.832 417.126 650.121 416.186 648.26L415 647.144C413.138 648.129 411.573 651.67 409.75 653.244C408.159 653.782 407.379 653.976 405.75 653.497C404.562 652.403 403.898 651.951 403.882 650.25C403.854 647.21 406.87 643.082 408.369 640.434C409.939 637.661 411.258 634.777 413.392 632.376Z"/>
	<path fill="#000001" d="M248.433 811.447C250.796 811.978 251.26 812.09 252.992 813.75C254.337 819.239 254.236 825.772 254.534 831.429C254.737 835.275 255.333 839.479 254.928 843.29C254.686 845.572 253.456 846.521 251.741 847.885C250.238 847.734 249.195 847.672 247.925 846.75C246.392 844.044 246.698 840.396 246.418 837.352L245.182 822.778C245.021 820.44 244.653 817.82 245.018 815.5C245.331 813.515 246.882 812.503 248.433 811.447Z"/>
	<path fill="#000001" d="M342.531 716.355C345.175 716.571 348.075 720.305 349.932 722.154L356.417 716.098C359.23 717.972 361.702 719.982 363.849 722.617C367.418 726.999 368.456 732.225 367.884 737.723C367.603 740.428 367.151 745.342 364.642 746.892C363.505 747.594 362.25 747.629 361.009 747.253C357.218 746.104 360.64 733.712 358.636 729.995C357.984 728.786 357.539 728.534 356.25 728.198C354.726 729.245 354.069 730.221 353.134 731.814L352.804 732.389C352.412 734.761 352.924 737.148 351.87 739.378C350.448 740.461 349.505 740.463 347.75 740.493C345.688 738.912 347.038 735.639 346.511 733.25C346.065 731.226 344.079 728.845 342.852 727.163L341.379 729.19C339.031 732.608 338.347 737.309 339.156 741.344L339.426 742.75C339.64 744.827 339.508 745.383 338.25 747.012C336.599 747.718 336.29 747.721 334.5 747.5C333.687 746.988 333.008 746.568 332.49 745.733C330.276 742.166 330.238 736.312 331.19 732.357C332.769 725.796 336.848 719.942 342.531 716.355Z"/>
	<path fill="#000001" d="M342.359 791.794C343.606 792.136 350.211 796.691 350.328 796.66C350.806 796.534 352.574 794.777 353.081 794.367C354.515 793.208 355.605 792.302 357.5 792.401C362.379 795.596 366.243 799.425 367.508 805.312L367.645 806C368.622 810.611 368.074 818.23 365.938 822.5C365.22 823.935 364.469 824.001 363 824.449C361.763 824.268 361.008 824.159 360.008 823.363C358.029 821.789 359.899 811.061 359.446 807.777C359.17 805.778 357.821 803.993 356.25 802.813C355.685 802.932 355.407 802.957 354.853 803.25C352.635 804.424 352.87 806.742 352.563 808.928C352.526 811.886 352.92 815.042 350.763 817.25C349.119 817.481 348.991 817.493 347.514 816.75C345.696 814.538 346.574 810.093 346.211 807.26C345.924 805.019 344.757 803.715 343 802.428C334.837 806.775 341.604 816.962 338.507 822.75C336.855 823.955 336.468 823.885 334.5 824.01C333.604 823.565 333.078 823.461 332.487 822.615C329.817 818.794 329.659 811.18 330.536 806.75C331.857 800.077 337.108 795.55 342.359 791.794Z"/>
	<path fill="#000001" d="M422.62 778.965C423.849 778.97 425.217 778.916 426.395 779.304C428.939 780.141 430.015 781.818 431.076 784.155L431.349 784.775C432.004 784.165 431.823 784.442 432.19 783.753C432.641 782.908 433.048 782.088 433.694 781.367C435.01 779.897 436.543 779.235 438.497 779.11C440.449 778.986 442.445 779.28 443.926 780.657C448.847 785.234 449.173 799.568 449.456 806.142C449.555 808.438 449.302 809.215 447.75 810.915C446.031 811.479 445.244 811.555 443.5 811.038C443.054 810.647 442.488 810.361 442.162 809.865C441.299 808.555 441.279 805.789 441.102 804.208C440.561 799.362 440.446 793.105 438.802 788.565L436.525 797.888C436.119 800.557 435.862 803.457 434.059 805.575C432.827 806.048 431.798 806.563 430.507 805.876C427.282 804.159 427.143 798.906 426.374 795.686L424.2 787.928C423.412 790.923 422.77 793.884 422.378 796.96C421.934 800.438 422.467 807.92 420.596 810.515C419.616 811.873 418.58 812.169 417 812.478C415.448 812.182 414.829 811.823 413.63 810.878C412.623 808.448 413.278 805.563 413.478 803C413.933 797.165 414.221 790.618 416.374 785.095C417.638 781.85 419.544 780.396 422.62 778.965Z"/>
</svg>
